<svg width="16" height="16" viewBox="0 0 16 16" fill="none" xmlns="http://www.w3.org/2000/svg">
<g clip-path="url(#clip0)">
<path d="M15.2728 0H9.45464C9.05298 0 8.72736 0.325625 8.72736 0.727281C8.72736 1.12894 9.05298 1.45456 9.45464 1.45456H13.517L6.03134 8.94031C5.74737 9.22428 5.74737 9.68478 6.03134 9.96881C6.1733 10.1108 6.35943 10.1818 6.54555 10.1818C6.73168 10.1818 6.91783 10.1108 7.05977 9.96878L14.5456 2.48306V6.54547C14.5456 6.94713 14.8712 7.27275 15.2728 7.27275C15.6745 7.27275 16.0001 6.94713 16.0001 6.54547V0.727281C16.0001 0.325625 15.6745 0 15.2728 0Z" fill="#4E5054"/>
<path d="M12.3636 7.27268C11.962 7.27268 11.6363 7.59831 11.6363 7.99996V14.5454H1.45453V4.36359H8C8.40166 4.36359 8.72728 4.03796 8.72728 3.63631C8.72728 3.23465 8.40166 2.90906 8 2.90906H0.727281C0.325625 2.90906 0 3.23468 0 3.63634V15.2727C0 15.6743 0.325625 16 0.727281 16H12.3637C12.7653 16 13.0909 15.6743 13.0909 15.2727V7.99996C13.0909 7.59831 12.7653 7.27268 12.3636 7.27268Z" fill="#4E5054"/>
</g>
<defs>
<clipPath id="clip0">
<rect width="16" height="16" fill="white"/>
</clipPath>
</defs>
</svg>
