<svg width="1440" height="815" viewBox="0 0 1440 815" fill="none" xmlns="http://www.w3.org/2000/svg">
<g clip-path="url(#clip0)">
<path d="M1440 0H0V814.796H1440V0Z" fill="#EFEDE4"/>
<path d="M992.25 748.39C994.5 747.168 1014.57 739.631 1015.29 740.752C1015.74 741.464 1011.78 764.992 1011.15 765.705C1010.97 766.01 996.75 753.177 992.25 748.39ZM1103.67 233.337C1103.67 233.235 1099.26 223.763 1097.37 218.875C1097.28 218.569 1097.1 217.754 1097.01 217.245C1096.92 216.838 1096.74 216.532 1096.47 216.328C1096.2 216.125 1095.93 216.227 1095.75 216.43L1083.96 228.958C1083.78 229.161 1083.69 229.467 1083.6 229.773C1083.6 230.078 1083.6 230.485 1083.78 230.791C1083.87 230.893 1085.04 233.337 1085.67 234.458C1087.83 238.226 1091.52 246.781 1091.52 246.883C1091.7 247.189 1091.88 247.392 1092.15 247.494C1092.42 247.494 1092.6 247.392 1092.78 247.189C1092.78 247.189 1094.4 244.643 1095.21 243.522C1096.56 241.893 1097.91 240.263 1099.35 238.735C1100.43 237.513 1100.79 237.309 1101.24 237.106C1101.69 236.8 1102.23 236.596 1103.49 235.171C1103.85 234.661 1103.94 233.847 1103.67 233.337ZM29.7001 784.547C29.7001 783.834 29.2501 783.325 28.6201 783.325C28.5301 783.325 28.3501 783.325 28.2601 783.426C26.8201 783.63 15.3901 783.528 8.28011 783.426C8.01011 783.426 7.74011 783.528 7.47011 783.834C7.29011 784.038 7.11011 784.343 7.11011 784.75C7.11011 784.954 7.11011 789.741 7.20011 790.76L7.56011 804.611C7.56011 804.917 7.74011 805.222 7.92011 805.528C8.10011 805.732 8.37011 805.833 8.64011 805.833H8.73011C15.3001 805.12 21.9601 804.917 28.5301 805.222C28.8001 805.222 29.1601 805.12 29.3401 804.917C29.5201 804.713 29.7001 804.306 29.7001 804C29.6101 797.787 29.6101 790.556 29.7001 784.547Z" fill="#EC813A"/>
<path d="M153.99 390.491C155.16 387.945 166.86 368.084 168.03 368.492C168.75 368.797 178.38 390.084 178.38 391C178.29 391.306 160.11 391.102 153.99 390.491ZM536.76 724.965C536.67 724.863 530.73 716.613 528.03 712.234C527.85 711.928 527.58 711.215 527.4 710.706C527.22 710.299 527.04 709.993 526.77 709.891C526.5 709.789 526.23 709.891 526.05 710.197L516.6 725.169C516.42 725.372 516.42 725.678 516.42 726.085C516.42 726.391 516.6 726.798 516.78 727.002C516.87 727.104 518.4 729.243 519.3 730.159C522.09 733.317 527.22 740.853 527.31 740.955C527.49 741.261 527.76 741.363 528.03 741.363C528.3 741.363 528.48 741.159 528.57 740.853C528.57 740.853 529.65 738.002 530.37 736.678C531.36 734.742 532.44 732.909 533.52 731.076C534.33 729.65 534.69 729.344 535.05 729.039C535.5 728.631 535.95 728.326 536.94 726.595C537.21 726.289 537.12 725.474 536.76 724.965ZM654.75 183.227C655.29 183.431 655.92 183.024 656.01 182.412C656.01 182.311 656.01 182.209 656.01 182.005C656.19 180.579 658.53 169.172 660.06 162.144C660.15 161.839 660.06 161.533 659.88 161.33C659.7 161.024 659.43 160.922 659.16 160.82C658.98 160.82 654.93 159.7 654.03 159.496L641.97 156.746C641.7 156.645 641.34 156.746 641.16 156.95C640.98 157.154 640.8 157.358 640.71 157.561V157.663C639.99 164.283 638.73 171.005 637.2 177.422C637.11 177.727 637.2 178.033 637.38 178.339C637.56 178.644 637.83 178.746 638.1 178.848C643.32 180.172 649.53 181.801 654.75 183.227Z" fill="#00BFB8"/>
<path d="M629.64 481.443C628.29 481.443 627.12 480.628 626.49 479.1C625.77 477.165 626.49 474.822 628.2 474.008C631.53 472.378 634.32 469.221 635.76 465.35C637.2 461.48 637.29 457.101 635.94 453.23C635.67 452.314 635.22 451.397 634.86 450.379C634.14 448.647 633.24 446.61 632.79 444.369C631.98 440.194 632.61 435.61 634.59 431.333C636.12 428.175 638.28 425.12 641.43 422.064C642.87 420.639 645.03 420.842 646.2 422.472C647.46 424.101 647.28 426.546 645.84 427.87C643.32 430.416 641.61 432.657 640.53 434.999C639.27 437.647 638.82 440.397 639.36 442.74C639.63 444.166 640.26 445.592 640.89 447.119C641.34 448.24 641.79 449.36 642.24 450.48C644.13 456.184 644.04 462.702 641.97 468.406C639.9 474.008 635.85 478.693 630.9 481.137C630.54 481.341 630.09 481.443 629.64 481.443ZM666.36 429.194C667.71 428.99 669.06 429.703 669.78 431.129C670.77 432.962 670.14 435.407 668.52 436.527C665.19 438.666 662.76 442.231 661.68 446.203C660.6 450.277 660.96 454.758 662.67 458.527C663.03 459.443 663.57 460.258 664.11 461.276C665.01 463.008 666.09 464.841 666.81 467.082C668.07 471.156 667.89 475.943 666.27 480.526C665.01 483.989 663.12 487.248 660.15 490.813C658.8 492.442 656.64 492.544 655.2 491.017C653.76 489.591 653.67 487.044 655.02 485.517C657.36 482.665 658.89 480.119 659.79 477.674C660.78 474.822 660.96 471.971 660.24 469.628C659.79 468.304 659.07 466.878 658.26 465.452C657.72 464.434 657.09 463.313 656.55 462.193C654.03 456.693 653.49 450.073 655.02 444.064C656.64 438.055 660.24 432.86 665.1 429.805C665.46 429.398 665.91 429.194 666.36 429.194ZM235.17 601.829C240.3 608.755 243.27 617.819 243.63 624.643C244.08 632.078 241.47 641.346 234.45 645.42C231.75 646.948 228.42 647.661 224.37 647.661C217.26 647.559 212.76 644.708 210.51 639.106C208.62 634.319 208.44 627.495 212.13 622.912C215.01 619.347 219.15 618.736 222.21 621.282C223.29 622.199 223.56 624.032 222.75 625.254C221.94 626.476 220.32 626.782 219.24 625.865C217.62 624.541 216 626.476 215.82 626.68C213.66 629.328 213.93 633.81 215.1 636.763C216.45 640.226 219.33 641.856 224.46 641.958C227.7 641.958 230.22 641.448 232.2 640.328C236.43 637.884 239.13 631.569 238.68 625.051C238.23 617.616 233.91 606.514 226.98 600.708C223.2 597.551 219.33 596.533 215.37 597.551C212.58 598.264 209.79 599.996 206.64 602.644C200.7 607.838 196.11 614.662 193.86 621.995C191.43 629.837 191.97 638.087 195.57 646.337C196.2 647.763 195.66 649.494 194.4 650.106C193.14 650.818 191.61 650.207 191.07 648.781C186.93 639.208 186.21 629.226 189.09 620.06C191.7 611.708 196.83 603.866 203.58 598.06C207.27 594.903 210.78 592.866 214.2 591.949C219.6 590.524 225 591.949 229.95 596.023C231.84 597.755 233.64 599.69 235.17 601.829Z" fill="white"/>
<path d="M912.33 163.978C915.859 163.978 918.72 160.74 918.72 156.746C918.72 152.753 915.859 149.515 912.33 149.515C908.801 149.515 905.94 152.753 905.94 156.746C905.94 160.74 908.801 163.978 912.33 163.978Z" fill="white"/>
<path d="M921.87 141.775C925.399 141.775 928.26 138.537 928.26 134.543C928.26 130.549 925.399 127.312 921.87 127.312C918.341 127.312 915.48 130.549 915.48 134.543C915.48 138.537 918.341 141.775 921.87 141.775Z" fill="white"/>
<path d="M933.57 158.885C937.099 158.885 939.96 155.648 939.96 151.654C939.96 147.66 937.099 144.423 933.57 144.423C930.041 144.423 927.18 147.66 927.18 151.654C927.18 155.648 930.041 158.885 933.57 158.885Z" fill="white"/>
<path d="M1357.83 302.697C1353.51 297.197 1349.1 291.697 1344.51 286.197C1349.55 280.494 1354.5 274.484 1358.55 267.66C1359.63 265.929 1359.18 263.485 1357.65 262.364C1356.12 261.142 1353.96 261.651 1352.97 263.383C1349.19 269.697 1344.78 275.197 1339.92 280.595C1335.6 275.503 1331.19 270.41 1326.69 265.42C1325.34 263.892 1323.18 263.892 1321.92 265.42C1320.57 266.948 1320.57 269.392 1321.92 270.818C1326.33 275.707 1330.65 280.799 1334.97 285.892C1333.98 287.012 1332.9 288.132 1331.82 289.151C1328.13 293.021 1324.26 297.095 1320.66 301.373C1319.4 302.9 1319.4 305.243 1320.66 306.771C1322.01 308.197 1324.17 308.197 1325.43 306.669C1328.94 302.595 1332.72 298.623 1336.32 294.752C1337.4 293.632 1338.39 292.512 1339.47 291.391C1343.88 296.789 1348.29 302.187 1352.61 307.586C1352.7 307.687 1352.7 307.687 1352.79 307.789C1354.05 309.215 1356.12 309.317 1357.47 307.993C1359 306.771 1359.09 304.326 1357.83 302.697ZM294.84 253.198L294.48 250.55C293.13 239.244 292.5 226.921 292.41 212.865C292.41 207.264 292.41 201.153 292.59 194.023C292.59 193.31 292.59 192.496 292.59 191.681C292.59 186.588 292.59 180.274 296.1 177.931C298.08 176.607 300.69 176.913 303.75 178.848C308.88 182.005 315.63 187.709 319.5 194.023C324.45 201.968 326.07 211.236 324 220.199C321.12 232.726 310.5 251.772 297 252.892L294.84 253.198ZM298.89 182.514C298.71 182.514 298.62 182.514 298.53 182.616C298.44 182.718 297.9 183.125 297.54 185.366C297.27 187.301 297.27 189.644 297.27 191.783C297.27 192.597 297.27 193.514 297.27 194.227C297.09 201.255 297.09 207.264 297.09 212.865C297.18 225.597 297.72 236.8 298.89 247.189C308.79 244.439 317.25 228.754 319.59 218.875C321.3 211.541 319.95 203.801 315.81 197.181C312.3 191.579 306 186.385 301.5 183.635C300.24 182.82 299.34 182.514 298.89 182.514ZM464.67 61.9245C464.58 61.9245 464.49 61.9245 464.31 61.8227C462.15 61.1097 460.71 60.906 458.28 61.1097C457.65 61.1097 457.11 60.6005 457.02 59.8875C457.02 59.1746 457.47 58.5635 458.1 58.4616C460.89 58.2579 462.51 58.4616 464.94 59.2764C465.57 59.4801 465.93 60.1931 465.75 60.906C465.57 61.5171 465.12 61.9245 464.67 61.9245ZM455.49 71.8039C455.04 71.8039 454.59 71.4984 454.41 70.9891C453.69 68.8503 453.33 66.6096 453.24 64.267C453.24 63.5541 453.69 62.943 454.32 62.943C454.95 62.943 455.49 63.4522 455.49 64.1652C455.58 66.2022 455.94 68.1373 456.48 70.0725C456.66 70.7854 456.39 71.4984 455.76 71.7021C455.76 71.8039 455.58 71.8039 455.49 71.8039ZM444.69 65.5911C444.33 65.5911 443.97 65.3874 443.79 65.0818C443.43 64.4707 443.52 63.6559 443.97 63.2485C445.59 61.8227 447.3 60.6005 449.19 59.582C449.73 59.2764 450.45 59.582 450.72 60.1931C450.99 60.8042 450.72 61.619 450.18 61.9245C448.47 62.8411 446.85 63.9615 445.41 65.2855C445.23 65.4892 444.96 65.5911 444.69 65.5911ZM450.45 56.3228C450 56.3228 449.64 56.0172 449.37 55.6098C448.92 54.5913 448.29 53.6747 447.21 52.147C446.94 51.7396 446.58 51.2303 446.22 50.7211C445.86 50.11 445.95 49.2952 446.4 48.8878C446.94 48.4804 447.66 48.5822 448.02 49.0915C448.38 49.6007 448.74 50.11 449.01 50.5174C450.18 52.1469 450.9 53.1654 451.44 54.4895C451.71 55.1006 451.44 55.9154 450.9 56.2209C450.81 56.3228 450.63 56.3228 450.45 56.3228ZM456.03 56.0172C455.76 56.0172 455.58 55.9154 455.31 55.8135C454.77 55.4061 454.68 54.5913 455.04 53.9802C456.12 52.2488 457.11 50.5174 458.01 48.6841C458.28 48.073 459 47.7674 459.54 48.1748C460.08 48.4804 460.35 49.2952 459.99 49.9063C459.09 51.8414 458.01 53.7765 456.84 55.6098C456.66 55.8135 456.39 56.0172 456.03 56.0172ZM926.37 389.88C926.28 389.88 926.19 389.88 926.01 389.778C923.85 389.065 922.41 388.861 919.98 389.065C919.35 389.065 918.81 388.556 918.72 387.843C918.72 387.13 919.17 386.519 919.8 386.417C922.59 386.213 924.21 386.417 926.64 387.232C927.27 387.436 927.63 388.148 927.45 388.861C927.27 389.473 926.82 389.88 926.37 389.88ZM917.19 399.759C916.74 399.759 916.29 399.454 916.11 398.945C915.39 396.806 915.03 394.565 914.94 392.222C914.94 391.51 915.39 390.898 916.02 390.898C916.65 390.898 917.19 391.408 917.19 392.121C917.28 394.158 917.64 396.093 918.18 398.028C918.36 398.741 918.09 399.454 917.46 399.657C917.46 399.759 917.28 399.759 917.19 399.759ZM906.39 393.547C906.03 393.547 905.67 393.343 905.49 393.037C905.13 392.426 905.22 391.611 905.67 391.204C907.29 389.778 909 388.556 910.89 387.537C911.43 387.232 912.15 387.537 912.42 388.148C912.69 388.76 912.42 389.574 911.88 389.88C910.17 390.797 908.55 391.917 907.11 393.241C906.93 393.445 906.66 393.547 906.39 393.547ZM912.15 384.278C911.7 384.278 911.34 383.973 911.07 383.565C910.62 382.547 909.99 381.63 908.91 380.102C908.64 379.695 908.28 379.186 907.92 378.676C907.56 378.065 907.65 377.251 908.1 376.843C908.64 376.436 909.36 376.538 909.72 377.047C910.08 377.556 910.44 378.065 910.71 378.473C911.88 380.102 912.6 381.121 913.14 382.445C913.41 383.056 913.14 383.871 912.6 384.176C912.51 384.278 912.33 384.278 912.15 384.278ZM917.73 383.973C917.46 383.973 917.28 383.871 917.01 383.769C916.47 383.362 916.38 382.547 916.74 381.936C917.82 380.204 918.81 378.473 919.71 376.639C919.98 376.028 920.7 375.723 921.24 376.13C921.78 376.436 922.05 377.251 921.69 377.862C920.79 379.797 919.71 381.732 918.54 383.565C918.36 383.769 918.09 383.973 917.73 383.973ZM1196.73 584.005C1195.47 584.005 1194.12 583.801 1192.68 583.292C1185.12 580.542 1177.74 570.357 1175.85 562.922C1175.49 561.496 1175.22 559.969 1175.04 558.441C1167.75 561.802 1161.09 569.237 1161.18 579.829C1161.18 581.357 1160.1 582.579 1158.75 582.681C1157.4 582.681 1156.32 581.459 1156.32 579.931C1156.23 573.107 1158.48 566.793 1162.62 561.598C1165.86 557.524 1170.18 554.367 1174.95 552.635C1175.4 546.015 1177.74 539.497 1181.61 534.914C1187.91 527.377 1197.99 525.849 1206.18 524.627L1206.81 524.525C1208.16 524.321 1209.42 525.442 1209.6 526.867C1209.78 528.395 1208.79 529.821 1207.53 530.025L1206.9 530.127C1199.16 531.349 1190.34 532.673 1185.3 538.682C1182.6 541.941 1180.8 546.524 1180.17 551.311C1187.28 550.293 1196.1 552.635 1202.04 557.117C1205.91 560.07 1208.43 565.061 1208.52 570.052C1208.7 574.431 1206.99 578.505 1203.84 581.357C1201.68 582.987 1199.34 584.005 1196.73 584.005ZM1179.9 556.811C1179.99 558.339 1180.26 559.867 1180.62 561.293C1182.15 567.2 1188.45 575.755 1194.21 577.894C1196.73 578.811 1198.8 578.403 1200.69 576.774C1203.12 574.635 1203.57 571.885 1203.48 570.052C1203.39 566.793 1201.68 563.533 1199.16 561.598C1194.03 557.626 1185.93 555.691 1179.9 556.811Z" fill="white"/>
</g>
<defs>
<clipPath id="clip0">
<rect width="1440" height="814.796" fill="white"/>
</clipPath>
</defs>
</svg>
