<svg width="91" height="72" viewBox="0 0 91 72" fill="none" xmlns="http://www.w3.org/2000/svg">
<g clip-path="url(#clip0)">
<path d="M9.96724 9.40941C9.79676 4.51412 13.6108 0 18.7662 0H71.5932C76.7486 0 80.5627 4.51412 80.3922 9.40941C80.2285 14.1118 80.4411 20.2032 81.9741 25.17C83.5121 30.1521 86.1055 33.3012 90.3529 33.7059V38.2941C86.1055 38.6988 83.5121 41.8479 81.9741 46.83C80.4411 51.7968 80.2285 57.8882 80.3922 62.5908C80.5627 67.4859 76.7486 72 71.5932 72H18.7662C13.6108 72 9.79676 67.4859 9.96741 62.5908C10.131 57.8882 9.91835 51.7968 8.38518 46.83C6.84741 41.8479 4.24765 38.6988 0 38.2941V33.7059C4.24747 33.3012 6.84741 30.1521 8.38518 25.17C9.91835 20.2032 10.131 14.1118 9.96724 9.40941Z" fill="url(#paint0_linear)"/>
<g filter="url(#filter0_d)">
<path d="M47.1358 55.1393C55.4823 55.1393 60.5119 51.0526 60.5119 44.312C60.5119 39.2167 56.9232 35.528 51.5945 34.944V34.7317C55.5095 34.0949 58.5817 30.4592 58.5817 26.399C58.5817 20.6137 54.0143 16.8452 47.0543 16.8452H31.3943V55.1393H47.1358ZM37.4843 21.7017H45.5862C49.9906 21.7017 52.4917 23.6655 52.4917 27.2215C52.4917 31.0165 49.5828 33.1395 44.3084 33.1395H37.4843V21.7017ZM37.4843 50.283V37.6776H45.5317C51.2954 37.6776 54.2861 39.8005 54.2861 43.9405C54.2861 48.0803 51.3771 50.283 45.8852 50.283H37.4843Z" fill="url(#paint1_linear)"/>
<path d="M47.1358 55.1393C55.4823 55.1393 60.5119 51.0526 60.5119 44.312C60.5119 39.2167 56.9232 35.528 51.5945 34.944V34.7317C55.5095 34.0949 58.5817 30.4592 58.5817 26.399C58.5817 20.6137 54.0143 16.8452 47.0543 16.8452H31.3943V55.1393H47.1358ZM37.4843 21.7017H45.5862C49.9906 21.7017 52.4917 23.6655 52.4917 27.2215C52.4917 31.0165 49.5828 33.1395 44.3084 33.1395H37.4843V21.7017ZM37.4843 50.283V37.6776H45.5317C51.2954 37.6776 54.2861 39.8005 54.2861 43.9405C54.2861 48.0803 51.3771 50.283 45.8852 50.283H37.4843Z" stroke="white"/>
</g>
</g>
<defs>
<filter id="filter0_d" x="14.8943" y="4.34521" width="62.1176" height="71.2941" filterUnits="userSpaceOnUse" color-interpolation-filters="sRGB">
<feFlood flood-opacity="0" result="BackgroundImageFix"/>
<feColorMatrix in="SourceAlpha" type="matrix" values="0 0 0 0 0 0 0 0 0 0 0 0 0 0 0 0 0 0 127 0" result="hardAlpha"/>
<feOffset dy="4"/>
<feGaussianBlur stdDeviation="8"/>
<feColorMatrix type="matrix" values="0 0 0 0 0 0 0 0 0 0 0 0 0 0 0 0 0 0 0.15 0"/>
<feBlend mode="normal" in2="BackgroundImageFix" result="effect1_dropShadow"/>
<feBlend mode="normal" in="SourceGraphic" in2="effect1_dropShadow" result="shape"/>
</filter>
<linearGradient id="paint0_linear" x1="13.4257" y1="1.90553" x2="92.3788" y2="64.5785" gradientUnits="userSpaceOnUse">
<stop stop-color="#9013FE"/>
<stop offset="1" stop-color="#6610F2"/>
</linearGradient>
<linearGradient id="paint1_linear" x1="34.1485" y1="19.3657" x2="51.7966" y2="49.2126" gradientUnits="userSpaceOnUse">
<stop stop-color="white"/>
<stop offset="1" stop-color="#F1E5FC"/>
</linearGradient>
<clipPath id="clip0">
<rect width="90.3529" height="72" fill="white"/>
</clipPath>
</defs>
</svg>
