<svg width="64" height="72" viewBox="0 0 64 72" fill="none" xmlns="http://www.w3.org/2000/svg">
<g clip-path="url(#clip0)">
<path d="M21.7578 50.0205C17.9446 46.4316 15.7015 41.4968 15.7015 35.8892C15.7015 30.2815 17.9446 25.3467 21.5335 21.7578C24.6738 18.6175 24.6738 13.6828 21.5335 10.5425C18.3932 7.40218 13.4584 7.40218 10.3181 10.5425C4.03753 17.0474 0 26.0197 0 35.8892C0 45.7587 4.03753 54.731 10.5424 61.2359C13.6827 64.3762 18.6175 64.3762 21.7578 61.2359C24.6738 58.0956 24.6738 53.1608 21.7578 50.0205Z" fill="#FAE501"/>
<path d="M21.7578 21.7578C25.3467 17.9446 30.2815 15.7015 35.8892 15.7015C41.4968 15.7015 46.4316 17.9446 50.0205 21.5335C53.1608 24.6738 58.0956 24.6738 61.2359 21.5335C64.3762 18.3932 64.3762 13.4584 61.2359 10.3181C54.731 4.03753 45.7587 0 35.8892 0C26.0197 0 17.0474 4.03753 10.5425 10.5424C7.40218 13.6827 7.40218 18.6175 10.5425 21.7578C13.6828 24.6738 18.6175 24.6738 21.7578 21.7578Z" fill="#4FB5E1"/>
<path d="M50.0205 50.0205C46.4316 53.8337 41.4968 56.0768 35.8892 56.0768C30.2815 56.0768 25.3467 53.8337 21.7578 50.2448C18.6175 47.1045 13.6828 47.1045 10.5425 50.2448C7.40218 53.3851 7.40218 58.3198 10.5425 61.4601C17.0474 67.7407 26.0197 71.7783 35.8892 71.7783C45.7587 71.7783 54.731 67.7407 61.2359 61.2358C64.3762 58.0955 64.3762 53.1608 61.2359 50.0205C58.0956 47.1045 53.1608 47.1045 50.0205 50.0205Z" fill="#F05751"/>
<path d="M16.1501 24.0008C20.4859 24.0008 24.0008 20.4859 24.0008 16.1501C24.0008 11.8142 20.4859 8.29932 16.1501 8.29932C11.8142 8.29932 8.29932 11.8142 8.29932 16.1501C8.29932 20.4859 11.8142 24.0008 16.1501 24.0008Z" fill="#0681B6"/>
<path d="M16.1501 63.4788C20.4859 63.4788 24.0008 59.9639 24.0008 55.6281C24.0008 51.2922 20.4859 47.7773 16.1501 47.7773C11.8142 47.7773 8.29932 51.2922 8.29932 55.6281C8.29932 59.9639 11.8142 63.4788 16.1501 63.4788Z" fill="#CD4739"/>
</g>
<defs>
<clipPath id="clip0">
<rect width="63.7785" height="72" fill="white"/>
</clipPath>
</defs>
</svg>
