<svg width="72" height="72" viewBox="0 0 72 72" fill="none" xmlns="http://www.w3.org/2000/svg">
<path d="M36 72C55.8823 72 72 55.8823 72 36C72 16.1177 55.8823 0 36 0C16.1177 0 0 16.1177 0 36C0 55.8823 16.1177 72 36 72Z" fill="#663399"/>
<path d="M15.9429 56.0572C10.5429 50.6572 7.71436 43.4572 7.71436 36.5144L35.7429 64.2858C28.5429 64.0286 21.3429 61.4572 15.9429 56.0572ZM42.1715 63.5144L8.48578 29.8286C11.3144 17.2286 22.6286 7.71436 36.0001 7.71436C45.5144 7.71436 53.7429 12.3429 58.8858 19.2858L55.0286 22.6286C50.6572 16.7144 43.7144 12.8572 36.0001 12.8572C25.9715 12.8572 17.4858 19.2858 14.1429 28.2858L43.7144 57.8572C51.1715 55.2858 56.8286 48.8572 58.6286 41.1429H46.2858V36.0001H64.2858C64.2858 49.3715 54.7715 60.6858 42.1715 63.5144Z" fill="white"/>
</svg>
