<svg width="72" height="72" viewBox="0 0 72 72" fill="none" xmlns="http://www.w3.org/2000/svg">
<path fill-rule="evenodd" clip-rule="evenodd" d="M36 2.87036C17.2423 2.87036 2.03174 18.0775 2.03174 36.8386C2.03174 51.8472 11.7647 64.5794 25.2613 69.0715C26.9584 69.3866 27.5816 68.3347 27.5816 67.4375C27.5816 66.6275 27.5501 63.9517 27.5355 61.1133C18.0855 63.1681 16.0914 57.1055 16.0914 57.1055C14.5462 53.1792 12.3199 52.1352 12.3199 52.1352C9.23736 50.027 12.5522 50.0709 12.5522 50.0709C15.9626 50.3099 17.7592 53.5713 17.7592 53.5713C20.7889 58.7632 25.7057 57.2624 27.6441 56.3951C27.9489 54.1996 28.8292 52.7006 29.8007 51.8523C22.2559 50.9945 14.3241 48.0813 14.3241 35.0656C14.3241 31.357 15.6516 28.3269 17.8245 25.9475C17.4712 25.0925 16.3086 21.6376 18.153 16.9587C18.153 16.9587 21.0049 16.0458 27.4961 20.4406C30.2062 19.6874 33.1127 19.3089 36 19.2959C38.8856 19.3089 41.7937 19.6863 44.5089 20.4395C50.9923 16.0447 53.8408 16.9576 53.8408 16.9576C55.6897 21.6359 54.5271 25.0914 54.1744 25.9464C56.3524 28.3257 57.6703 31.3559 57.6703 35.0645C57.6703 48.1111 49.7239 50.9832 42.1599 51.8247C43.3789 52.8789 44.4645 54.9466 44.4645 58.1152C44.4645 62.6602 44.4251 66.3181 44.4251 67.4369C44.4251 68.3409 45.0371 69.4001 46.7584 69.0665C60.2471 64.5699 69.9688 51.8416 69.9688 36.8386C69.9682 18.0787 54.7594 2.87092 36 2.87092V2.87036Z" fill="#F0F5F8"/>
<path d="M14.8971 51.6409C14.8223 51.8097 14.5568 51.8603 14.315 51.745C14.0675 51.6347 13.9296 51.4047 14.0095 51.2354C14.0826 51.061 14.3487 51.0132 14.5945 51.1296C14.842 51.2404 14.9826 51.4727 14.8966 51.6415L14.8971 51.6409ZM16.273 53.176C16.1116 53.3262 15.7949 53.2564 15.58 53.0185C15.3573 52.7822 15.3156 52.4656 15.4805 52.3131C15.6481 52.1635 15.9552 52.2344 16.178 52.4706C16.3996 52.7102 16.4435 53.0241 16.2736 53.1766L16.273 53.176ZM17.6129 55.1318C17.4048 55.2769 17.0639 55.1414 16.8535 54.8393C16.6454 54.5367 16.6454 54.1739 16.8591 54.0293C17.069 53.8842 17.4048 54.0152 17.6185 54.3145C17.8255 54.6211 17.8255 54.9839 17.6129 55.1312V55.1318ZM19.4472 57.0224C19.2616 57.2277 18.8645 57.1725 18.5742 56.893C18.2778 56.619 18.1951 56.2292 18.3813 56.0245C18.5703 55.8186 18.9691 55.876 19.261 56.1539C19.5575 56.4272 19.6469 56.8176 19.4483 57.0218L19.4472 57.0224ZM21.9785 58.1198C21.8958 58.3859 21.5144 58.5068 21.1291 58.3932C20.7449 58.2767 20.4935 57.9657 20.5722 57.6968C20.651 57.4285 21.0351 57.303 21.4227 57.424C21.8069 57.5399 22.0583 57.8492 21.9785 58.1198ZM24.7589 58.3229C24.7685 58.603 24.4422 58.8347 24.0389 58.8404C23.6322 58.8499 23.3031 58.6227 23.2992 58.347C23.2992 58.0641 23.6187 57.8352 24.0248 57.8273C24.4281 57.82 24.7595 58.045 24.7595 58.3223L24.7589 58.3229ZM27.3453 57.883C27.3936 58.1558 27.113 58.4365 26.7119 58.5113C26.3181 58.5844 25.9525 58.4145 25.9019 58.144C25.8535 57.8639 26.1393 57.5832 26.533 57.5106C26.9346 57.4414 27.2946 57.6062 27.3453 57.8836V57.883Z" fill="#181616"/>
</svg>
