<svg width="72" height="72" viewBox="0 0 72 72" fill="none" xmlns="http://www.w3.org/2000/svg">
<path d="M4.21875 0L8.69073 63.0143L36.028 72L63.3653 63.0143L67.8373 0H4.21875Z" fill="#FF7816"/>
<path d="M67.8373 0L63.3654 63.0143L36.0281 72V0H67.8373Z" fill="#FF4B00"/>
<path d="M55.8985 19.125H24.6375L25.3966 29.6719H55.1393L53.325 55.209L36.0281 60.989L18.7312 55.209L18.1407 46.6875H26.5782L26.7468 49.0078L36.0281 52.0873L45.3093 49.0078L46.0685 38.1094H17.5079L15.5671 10.6875H56.489L55.8985 19.125Z" fill="#ECECF1"/>
<path d="M55.1393 29.6719L53.325 55.209L36.0281 60.989V52.0873L45.3093 49.0078L46.0685 38.1094H36.0281V29.6719H55.1393Z" fill="#E2E2E7"/>
<path d="M56.489 10.6875L55.8985 19.125H36.0281V10.6875H56.489Z" fill="#E2E2E7"/>
</svg>
