<svg width="72" height="72" viewBox="0 0 72 72" fill="none" xmlns="http://www.w3.org/2000/svg">
<g clip-path="url(#clip0)">
<path d="M30.8239 13.3408C27.497 15.6807 23.7264 18.3327 21.706 22.7204C18.1968 30.3753 28.8866 38.7253 29.3435 39.077C29.4497 39.1587 29.5768 39.1995 29.7035 39.1995C29.8381 39.1995 29.9728 39.1535 30.0822 39.0618C30.2944 38.8843 30.3546 38.5828 30.2272 38.3373C30.1885 38.2628 26.3514 30.8096 26.494 25.4627C26.5445 23.6004 29.1507 21.4878 31.9098 19.2512C34.4368 17.2025 37.3014 14.8807 38.9774 12.1645C42.6567 6.18564 38.5673 0.306651 38.5255 0.24787C38.3631 0.019775 38.0633 -0.0627722 37.8069 0.0495876C37.5508 0.162651 37.409 0.439542 37.4675 0.71334C37.4758 0.752293 38.271 4.64003 36.0581 8.64546C35.1466 10.3006 33.1435 11.7094 30.8239 13.3408Z" fill="#DB380E"/>
<path d="M44.8405 15.9771C45.0752 15.8004 45.1441 15.4779 45.0022 15.2206C44.86 14.9632 44.5506 14.8498 44.2759 14.9541C43.7107 15.169 30.436 20.2859 30.436 26.4685C30.436 30.7305 32.2566 32.9819 33.5859 34.6261C34.1074 35.271 34.5575 35.8278 34.7059 36.3033C35.1235 37.6734 34.1341 40.1498 33.718 40.9885C33.598 41.2296 33.6568 41.5218 33.8608 41.6978C33.9711 41.793 34.1088 41.8414 34.2466 41.8414C34.3639 41.8414 34.4817 41.8065 34.5835 41.7357C34.8117 41.577 40.1617 37.7945 39.2022 33.2372C38.8447 31.505 37.9935 30.2394 37.2425 29.1225C36.0789 27.3921 35.2385 26.1423 36.5135 23.8338C38.0072 21.1411 44.772 16.0283 44.8405 15.9771Z" fill="#DB380E"/>
<path d="M11.8044 41.9396C11.5768 42.6209 11.6843 43.2968 12.1147 43.8947C13.5538 45.8926 18.651 46.9926 26.4681 46.9926C26.4685 46.9926 26.4688 46.9926 26.4691 46.9926C27.5283 46.9926 28.6465 46.9717 29.7919 46.9307C42.29 46.4833 46.9256 42.5897 47.1168 42.4242C47.3253 42.2438 47.3809 41.9434 47.2514 41.7004C47.1218 41.4575 46.8423 41.3355 46.5753 41.409C42.1736 42.6108 33.9544 43.0375 28.2535 43.0375C21.8743 43.0375 18.6256 42.5779 17.8302 42.2386C18.2383 41.6782 20.7555 40.6775 23.8747 40.0639C24.1728 40.0054 24.3777 39.7301 24.3482 39.4277C24.3186 39.1254 24.0647 38.8948 23.7608 38.8948C21.9324 38.8948 12.7629 39.0416 11.8044 41.9396Z" fill="#73A1FB"/>
<path d="M53.6257 37.9292C51.0479 37.9292 48.6034 39.2213 48.5004 39.276C48.2621 39.4037 48.1411 39.677 48.2065 39.9397C48.2722 40.202 48.508 40.3864 48.7784 40.3866C48.8332 40.3866 54.2772 40.4312 54.7702 43.5417C55.207 46.2251 49.6192 50.573 47.4293 52.022C47.1928 52.1785 47.1009 52.4809 47.2108 52.7424C47.3043 52.965 47.521 53.1042 47.7547 53.1042C47.7955 53.1042 47.8368 53.1 47.8779 53.0913C48.3976 52.9801 60.5913 50.293 59.302 43.1935C58.5155 38.8426 55.7809 37.9292 53.6257 37.9292Z" fill="#73A1FB"/>
<path d="M45.2634 51.1533C45.3059 50.9259 45.2113 50.6946 45.022 50.5617L42.0982 48.5138C41.9557 48.4139 41.7755 48.3826 41.6082 48.4269C41.5777 48.4346 38.5202 49.2384 34.0812 49.7313C32.3194 49.9289 30.3462 50.0332 28.3743 50.0332C23.9365 50.0332 21.0348 49.5118 20.6122 49.1293C20.5562 49.0218 20.574 48.973 20.5839 48.9459C20.6607 48.7324 21.0722 48.4787 21.3374 48.3783C21.6303 48.2699 21.7883 47.9518 21.6971 47.6531C21.6063 47.354 21.2982 47.1781 20.9941 47.2511C18.0613 47.9589 16.6272 48.9486 16.7315 50.1927C16.9169 52.3985 22.0261 53.5307 26.3454 53.83C26.9665 53.8724 27.6383 53.894 28.3416 53.894C28.342 53.894 28.3423 53.894 28.3427 53.894C35.525 53.894 44.7326 51.6404 44.8246 51.6175C45.0494 51.5627 45.2208 51.3811 45.2634 51.1533Z" fill="#73A1FB"/>
<path d="M23.221 55.8873C23.4425 55.7433 23.5407 55.4695 23.4621 55.2173C23.3837 54.9652 23.1479 54.7995 22.883 54.803C22.4899 54.8134 19.037 54.9692 18.7953 57.1677C18.7221 57.8247 18.9103 58.425 19.3548 58.9516C20.5946 60.4209 23.9412 61.2942 29.5841 61.6213C30.2516 61.6614 30.9297 61.6815 31.5998 61.6815C38.7738 61.6815 43.6054 59.4353 43.8078 59.3396C44.0039 59.2468 44.1333 59.054 44.1449 58.8375C44.1564 58.6209 44.0482 58.4154 43.8632 58.3022L40.1682 56.0466C40.04 55.9684 39.8866 55.9425 39.7403 55.9725C39.717 55.9774 37.3709 56.464 33.8304 56.9446C33.1604 57.0357 32.3215 57.082 31.3371 57.082C27.8004 57.082 23.8665 56.5042 23.1121 56.1258C23.1011 56.0552 23.115 55.9654 23.221 55.8873Z" fill="#73A1FB"/>
<path d="M28.2562 68.4635C44.6889 68.4496 53.5085 65.5272 55.2075 63.6883C55.809 63.0377 55.8739 62.4218 55.8229 62.0195C55.6966 61.0295 54.7948 60.4234 54.6926 60.3576C54.4459 60.1989 54.1149 60.2404 53.9225 60.4623C53.7305 60.6842 53.726 61.0085 53.9187 61.2303C54.0223 61.3636 54.0822 61.5868 53.7792 61.8901C53.1 62.5245 46.2494 64.45 34.8431 65.0286C33.2806 65.1097 31.6418 65.1511 29.9724 65.1513C19.7598 65.1513 12.2857 63.7524 11.3045 62.9373C11.6826 62.394 14.3264 61.5259 17.1379 61.0348C17.4548 60.9795 17.6688 60.681 17.6197 60.3632C17.5706 60.0455 17.2777 59.8268 16.9575 59.8683C16.8782 59.8792 16.609 59.8952 16.2974 59.9143C11.6585 60.1975 6.29768 60.8288 6.01797 63.219C5.93303 63.9473 6.14946 64.6085 6.66147 65.184C7.91431 66.5916 11.5153 68.4632 28.2557 68.4632C28.2559 68.4635 28.2559 68.4635 28.2562 68.4635Z" fill="#73A1FB"/>
<path d="M58.4353 64.2065C58.203 64.0991 57.9285 64.1533 57.7552 64.3404C57.7312 64.3664 55.2605 66.9498 47.8321 68.4669C44.9882 69.0367 39.6501 69.3257 31.9659 69.3257C24.2674 69.3257 16.9417 69.0228 16.8688 69.0197C16.5628 69.0048 16.3011 69.2273 16.2594 69.5285C16.2177 69.8294 16.4117 70.1132 16.7072 70.1835C16.7834 70.2015 24.4606 72.0001 34.9574 72.0001C39.992 72.0001 44.8911 71.5913 49.5189 70.7844C58.1479 69.2717 58.752 64.993 58.7735 64.8116C58.8036 64.5581 58.6672 64.3139 58.4353 64.2065Z" fill="#73A1FB"/>
</g>
<defs>
<clipPath id="clip0">
<rect width="72" height="72" fill="white"/>
</clipPath>
</defs>
</svg>
