<svg width="72" height="72" viewBox="0 0 72 72" fill="none" xmlns="http://www.w3.org/2000/svg">
<g clip-path="url(#clip0)">
<path d="M52.1397 24.9859L52.1136 24.9749C52.0984 24.969 52.0835 24.9638 52.0704 24.9504C52.0268 24.9035 52.0074 24.839 52.0179 24.7757L53.4674 15.9013L60.2646 22.7102L53.1955 25.7221C53.1762 25.7301 53.1548 25.734 53.1336 25.7332H53.1055C53.0961 25.7273 53.0869 25.72 53.068 25.7012C52.8049 25.4079 52.4903 25.1654 52.1398 24.9858L52.1397 24.9859ZM61.9989 24.4451L69.2667 31.7234C70.7762 33.2368 71.5318 33.9917 71.8075 34.8668C71.8487 34.9963 71.8824 35.1259 71.9087 35.2592L54.5398 27.8927C54.5305 27.8887 54.5212 27.8849 54.5117 27.8817C54.4423 27.8535 54.3617 27.8216 54.3617 27.7502C54.3617 27.6789 54.4441 27.645 54.5135 27.6169L54.5361 27.6076L61.9989 24.4451ZM71.6124 37.5952C71.2374 38.3012 70.5061 39.0336 69.2686 40.2748L61.0745 48.4788L50.4765 46.2687L50.4202 46.2576C50.3265 46.2425 50.2271 46.2257 50.2271 46.1412C50.1457 45.2562 49.7009 44.4448 48.9989 43.901C48.9558 43.8578 48.967 43.7902 48.9803 43.7283C48.9803 43.7189 48.9803 43.7097 48.984 43.7019L50.9773 31.4475L50.9846 31.4061C50.9956 31.3122 51.0127 31.2033 51.0971 31.2033C51.9599 31.0958 52.7436 30.646 53.2722 29.9546C53.2891 29.936 53.3003 29.9152 53.3228 29.9039C53.3828 29.8757 53.4541 29.9039 53.5159 29.9303L71.6105 37.5954L71.6124 37.5952ZM59.19 50.366L45.7156 63.8597L48.022 49.6637L48.0257 49.6451C48.0276 49.6265 48.0316 49.6075 48.0367 49.5906C48.0553 49.5455 48.1042 49.5268 48.1511 49.508L48.1736 49.4986C48.6786 49.2829 49.1253 48.9501 49.4768 48.5278C49.5218 48.4752 49.5762 48.4245 49.6456 48.4151C49.6635 48.4121 49.6819 48.4121 49.6999 48.4151L59.1879 50.368L59.19 50.366ZM42.8636 66.7158L41.3448 68.2368L24.5534 43.9346C24.5474 43.9257 24.5411 43.917 24.5348 43.9082C24.5087 43.8725 24.4804 43.8368 24.4861 43.7955C24.4861 43.7654 24.5068 43.7392 24.5273 43.7166L24.5459 43.6922C24.5966 43.617 24.6397 43.542 24.6865 43.4612L24.724 43.3955L24.7299 43.3896C24.7563 43.3446 24.7805 43.3013 24.8255 43.2769C24.8649 43.2583 24.9193 43.2659 24.9624 43.275L43.5651 47.117C43.6171 47.125 43.6662 47.1464 43.7076 47.1789C43.7321 47.2034 43.7377 47.2297 43.7433 47.2597C44.0063 48.2564 44.7194 49.0726 45.6709 49.4661C45.7234 49.4925 45.7009 49.5506 45.6767 49.6126C45.6646 49.6398 45.655 49.668 45.6486 49.6971C45.4142 51.1242 43.4041 63.4011 42.8641 66.7154L42.8636 66.7158ZM39.691 69.8911C38.5716 71.0009 37.9115 71.5886 37.1652 71.8252C36.4294 72.0583 35.6397 72.0583 34.9039 71.8252C34.0301 71.5473 33.2745 70.7925 31.765 69.279L14.9024 52.3921L19.3069 45.5513C19.3277 45.5175 19.3482 45.4875 19.3819 45.4631C19.4288 45.4293 19.4963 45.4445 19.5526 45.4631C20.5635 45.7685 21.649 45.7134 22.624 45.3072C22.6746 45.2886 22.7252 45.2753 22.7646 45.3109C22.7845 45.3287 22.8019 45.3491 22.8171 45.371L39.691 69.8929L39.691 69.8911ZM13.2767 50.7641L9.40837 46.8902L17.0475 43.6266C17.0669 43.6179 17.088 43.6136 17.1093 43.6134C17.1731 43.6134 17.2106 43.6773 17.2444 43.7355C17.3211 43.8537 17.4024 43.969 17.4881 44.081L17.5126 44.111C17.5351 44.1429 17.5199 44.1749 17.4974 44.2049L13.2785 50.764L13.2767 50.7641ZM7.69641 45.1758L2.80244 40.2748C1.9699 39.441 1.36612 38.8364 0.946102 38.3162L15.8268 41.4071C15.8454 41.4106 15.8642 41.4138 15.883 41.4164C15.9749 41.4316 16.0762 41.4483 16.0762 41.5347C16.0762 41.6286 15.9655 41.6718 15.8718 41.7075L15.8286 41.7261L7.69641 45.1758ZM0.0910645 35.7963C0.108094 35.4805 0.164732 35.1682 0.25981 34.8668C0.537323 33.9917 1.29111 33.2368 2.80243 31.7234L9.06521 25.4516C11.9488 29.6425 14.8402 33.8281 17.7394 38.0083C17.79 38.0759 17.8462 38.151 17.7881 38.2073C17.5144 38.5097 17.2406 38.8401 17.0475 39.1988C17.0265 39.2449 16.9943 39.285 16.9537 39.3152C16.9292 39.3304 16.9031 39.3246 16.8749 39.3189H16.8712L0.0910645 35.7944V35.7963ZM10.7415 23.7728L19.1588 15.3397C19.952 15.6871 22.834 16.9058 25.4085 17.9949C27.3586 18.8211 29.1361 19.5722 29.6949 19.8163C29.7512 19.8389 29.8018 19.8614 29.8262 19.9177C29.8413 19.9515 29.8335 19.9947 29.8262 20.0304C29.5554 21.267 29.9239 22.557 30.8068 23.463C30.8631 23.5194 30.8068 23.6001 30.7581 23.6696L30.732 23.709L22.1816 36.9718C22.159 37.0093 22.1384 37.0413 22.1009 37.0657C22.0559 37.0939 21.9921 37.0808 21.9397 37.0676C21.6071 36.9804 21.2652 36.9337 20.9215 36.9287C20.614 36.9287 20.2802 36.985 19.9427 37.047H19.9408C19.9033 37.0528 19.8695 37.0601 19.8395 37.0376C19.8064 37.0104 19.7779 36.9782 19.7552 36.9418L10.7398 23.773L10.7415 23.7728ZM20.8633 13.6366L31.765 2.71915C33.2745 1.20754 34.0301 0.450794 34.9039 0.174758C35.6397 -0.0582528 36.4294 -0.0582528 37.1652 0.174758C38.039 0.450794 38.7947 1.20754 40.3041 2.71915L42.6668 5.08516L34.9133 17.1105C34.8942 17.1455 34.8679 17.1761 34.8364 17.2006C34.7895 17.2325 34.7239 17.2192 34.6676 17.2006C33.4266 16.8234 32.0797 17.0834 31.0675 17.8954C31.0168 17.948 30.9419 17.9179 30.8781 17.8895C29.8655 17.4482 21.9902 14.1152 20.8633 13.6363L20.8633 13.6366ZM44.3131 6.73385L51.4722 13.9032L49.7471 24.6028V24.631C49.7456 24.6554 49.7403 24.6794 49.7319 24.7023C49.7133 24.7399 49.6757 24.7474 49.6382 24.7587C49.2693 24.8706 48.9219 25.0439 48.6106 25.2713C48.5972 25.2811 48.5848 25.2916 48.5731 25.3032C48.5523 25.3258 48.5318 25.3464 48.4981 25.3502C48.4706 25.351 48.4433 25.3467 48.4175 25.337L37.5082 20.6951L37.4875 20.6858C37.4181 20.6576 37.3356 20.6238 37.3356 20.5524C37.2714 19.9436 37.0729 19.3567 36.7543 18.8343C36.7018 18.7479 36.6437 18.6577 36.6886 18.5695L44.3131 6.73385ZM36.9402 22.894L47.167 27.2317C47.2232 27.2581 47.2851 27.2824 47.3095 27.3406C47.3194 27.3756 47.3194 27.4126 47.3095 27.4476C47.2794 27.5979 47.2532 27.7688 47.2532 27.9415V28.2288C47.2532 28.3002 47.1801 28.3302 47.1126 28.3584L47.0918 28.3657C45.4718 29.0586 24.347 38.0795 24.3152 38.0795C24.2833 38.0795 24.2495 38.0795 24.2177 38.0476C24.1614 37.9913 24.2177 37.9124 24.2683 37.841C24.2774 37.8287 24.2858 37.816 24.2944 37.8035L32.6986 24.7717L32.7137 24.7492C32.7625 24.6703 32.8187 24.582 32.9087 24.582L32.9931 24.5952C33.1843 24.6216 33.3531 24.6459 33.5237 24.6459C34.7988 24.6459 35.9801 24.0244 36.6926 22.9615C36.7097 22.9331 36.7311 22.9078 36.7564 22.8864C36.807 22.8488 36.882 22.8678 36.9401 22.8937L36.9402 22.894ZM25.2285 40.1414L48.2545 30.3075C48.2545 30.3075 48.2882 30.3075 48.3201 30.3394C48.4458 30.4653 48.5526 30.5497 48.6558 30.6286L48.7064 30.6605C48.7532 30.6869 48.8002 30.7168 48.8039 30.7657C48.8039 30.7843 48.8039 30.7957 48.7999 30.8126L46.8274 42.9469L46.82 42.9957C46.8068 43.0896 46.7939 43.1966 46.7057 43.1966C45.638 43.2688 44.6746 43.8639 44.1312 44.7871L44.1218 44.8023C44.0957 44.8455 44.0712 44.8868 44.0281 44.9093C43.9887 44.9279 43.9381 44.9203 43.8968 44.9112L25.5341 41.118C25.5155 41.1143 25.2491 40.1435 25.2285 40.1416L25.2285 40.1414Z" fill="url(#paint0_radial)"/>
</g>
<defs>
<radialGradient id="paint0_radial" cx="0" cy="0" r="1" gradientUnits="userSpaceOnUse" gradientTransform="translate(35.9999 -36) scale(71.9999 72.1827)">
<stop stop-color="#20C6B7"/>
<stop offset="1" stop-color="#4D9ABF"/>
</radialGradient>
<clipPath id="clip0">
<rect width="72" height="72" fill="white"/>
</clipPath>
</defs>
</svg>
