<svg width="72" height="44" viewBox="0 0 72 44" fill="none" xmlns="http://www.w3.org/2000/svg">
<path d="M16.989 11.3289H30.5688V12.4083H18.2338V20.5318H29.8333V21.6111H18.2338V30.5299H30.7103V31.6093H16.989V11.3289ZM31.7854 11.3289H33.2282L39.6221 20.2477L46.1574 11.3289L55.0465 0L40.4425 21.1851L47.968 31.6093H46.4686L39.6221 22.1224L32.7473 31.6093H31.2761L38.8582 21.1851L31.7854 11.3289ZM48.5056 12.4083V11.3289H63.9809V12.4083H56.8515V31.6093H55.6067V12.4083H48.5056ZM0 11.3289H1.55603L23.0127 43.4368L14.1457 31.6093L1.3014 12.8627L1.24482 31.6093H0V11.3289ZM63.8555 30.2042C63.6012 30.2042 63.4105 30.0072 63.4105 29.7525C63.4105 29.4978 63.6012 29.3008 63.8555 29.3008C64.1129 29.3008 64.3006 29.4978 64.3006 29.7525C64.3006 30.0072 64.1129 30.2042 63.8555 30.2042ZM65.0787 29.0158H65.7448C65.7539 29.3766 66.0173 29.6191 66.4048 29.6191C66.8378 29.6191 67.083 29.3584 67.083 28.8703V25.778H67.7612V28.8733C67.7612 29.7525 67.2526 30.2588 66.4109 30.2588C65.6207 30.2588 65.0787 29.7677 65.0787 29.0158ZM68.6484 28.9764H69.3205C69.378 29.3917 69.7837 29.6555 70.3681 29.6555C70.9131 29.6555 71.3127 29.3735 71.3127 28.9855C71.3127 28.652 71.0584 28.4519 70.4801 28.3155L69.9169 28.1791C69.1267 27.9941 68.7664 27.6122 68.7664 26.9695C68.7664 26.1903 69.4022 25.6719 70.356 25.6719C71.2431 25.6719 71.891 26.1903 71.9304 26.927H71.2703C71.2067 26.5238 70.8555 26.2722 70.3469 26.2722C69.811 26.2722 69.4537 26.5299 69.4537 26.924C69.4537 27.2362 69.6838 27.4151 70.253 27.5485L70.7344 27.6667C71.6306 27.8759 72 28.2397 72 28.8976C72 29.7343 71.3521 30.2588 70.3166 30.2588C69.3477 30.2588 68.6968 29.7586 68.6484 28.9764Z" fill="#F7F7F7"/>
</svg>
