<svg width="72" height="72" viewBox="0 0 72 72" fill="none" xmlns="http://www.w3.org/2000/svg">
<path d="M36.0001 42.4124C39.5417 42.4124 42.4126 39.5414 42.4126 35.9999C42.4126 32.4584 39.5417 29.5874 36.0001 29.5874C32.4586 29.5874 29.5876 32.4584 29.5876 35.9999C29.5876 39.5414 32.4586 42.4124 36.0001 42.4124Z" fill="#61DAFB"/>
<path d="M60.3563 25.4249C59.1188 24.9749 57.8251 24.5249 56.4751 24.1312C56.8126 22.7812 57.0938 21.4312 57.3188 20.1374C58.5001 12.7124 57.2063 7.48115 53.6063 5.45615C52.5376 4.8374 51.3563 4.55615 50.0063 4.55615C46.0688 4.55615 41.0626 7.48115 36.0001 12.3749C30.9376 7.48115 25.9313 4.55615 21.9938 4.55615C20.6438 4.55615 19.4626 4.8374 18.3938 5.45615C14.7938 7.5374 13.5001 12.7687 14.6813 20.1374C14.9063 21.4312 15.1876 22.7812 15.5251 24.1312C14.1751 24.5249 12.8813 24.9187 11.6438 25.4249C4.6126 28.1249 0.787598 31.8374 0.787598 35.9999C0.787598 40.1624 4.66885 43.8749 11.6438 46.5749C12.8813 47.0249 14.1751 47.4749 15.5251 47.8687C15.1876 49.2187 14.9063 50.5687 14.6813 51.8624C13.5001 59.2874 14.7938 64.5187 18.3938 66.5437C19.4626 67.1624 20.6438 67.4437 21.9938 67.4437C25.9876 67.4437 30.9938 64.5187 36.0001 59.6249C41.0626 64.5187 46.0688 67.4437 50.0063 67.4437C51.3563 67.4437 52.5376 67.1624 53.6063 66.5437C57.2063 64.4624 58.5001 59.2312 57.3188 51.8624C57.0938 50.5687 56.8126 49.2187 56.4751 47.8687C57.8251 47.4749 59.1188 47.0812 60.3563 46.5749C67.3876 43.8749 71.2126 40.1624 71.2126 35.9999C71.2126 31.8374 67.3876 28.1249 60.3563 25.4249ZM52.0313 8.26865C54.3376 9.61865 55.1251 13.7812 54.1688 19.6874C54.0001 20.8687 53.7188 22.1062 53.3813 23.3999C50.4563 22.7249 47.3626 22.2749 44.1001 21.9937C42.1876 19.2937 40.2188 16.8749 38.2501 14.6812C42.4126 10.5749 46.6313 7.7624 50.0626 7.7624C50.7938 7.7624 51.4688 7.93115 52.0313 8.26865ZM45.7313 41.6249C44.7188 43.4249 43.5376 45.2249 42.3001 47.0249C40.2188 47.1937 38.1376 47.2499 36.0001 47.2499C33.8063 47.2499 31.7251 47.1937 29.7001 47.0249C28.4626 45.2249 27.3376 43.4249 26.3251 41.6249C25.2563 39.7687 24.2438 37.8562 23.3438 35.9999C24.2438 34.1437 25.2563 32.2312 26.3251 30.3749C27.3376 28.5749 28.5188 26.7749 29.7563 24.9749C31.8376 24.8062 33.9188 24.7499 36.0563 24.7499C38.2501 24.7499 40.3313 24.8062 42.3563 24.9749C43.5938 26.7749 44.7188 28.5749 45.7313 30.3749C46.8001 32.2312 47.8126 34.1437 48.7126 35.9999C47.7563 37.8562 46.8001 39.7124 45.7313 41.6249ZM50.4001 39.7687C51.2438 41.7374 51.9188 43.6499 52.5376 45.5624C50.6251 46.0124 48.6001 46.3499 46.4626 46.6312C47.1376 45.5624 47.8688 44.4374 48.4876 43.2562C49.1626 42.0749 49.7813 40.8937 50.4001 39.7687ZM36.0001 55.0124C34.6501 53.5499 33.3563 51.9749 32.1188 50.3437C33.4126 50.3999 34.7063 50.4562 36.0001 50.4562C37.2938 50.4562 38.5876 50.3999 39.8813 50.3437C38.6438 51.9749 37.3501 53.5499 36.0001 55.0124ZM25.5376 46.5749C23.4001 46.2937 21.3751 45.9562 19.4626 45.5062C20.0813 43.6499 20.7563 41.6812 21.6001 39.7124C22.2188 40.8374 22.8376 42.0187 23.5126 43.1437C24.1876 44.3812 24.8626 45.4499 25.5376 46.5749ZM21.6001 32.2312C20.7563 30.2624 20.0813 28.3499 19.4626 26.4374C21.3751 25.9874 23.4001 25.6499 25.5376 25.3687C24.8626 26.4374 24.1313 27.5624 23.5126 28.7437C22.8376 29.9249 22.2188 31.1062 21.6001 32.2312ZM36.0001 16.9874C37.3501 18.4499 38.6438 20.0249 39.8813 21.6562C38.5876 21.5999 37.2938 21.5437 36.0001 21.5437C34.7063 21.5437 33.4126 21.5999 32.1188 21.6562C33.3563 20.0249 34.6501 18.4499 36.0001 16.9874ZM48.4876 28.7999L46.4626 25.4249C48.6001 25.7062 50.6251 26.0437 52.5376 26.4937C51.9188 28.3499 51.2438 30.3187 50.4001 32.2874C49.7813 31.1062 49.1626 29.9249 48.4876 28.7999ZM17.8313 19.6874C16.8751 13.7812 17.6626 9.61865 19.9688 8.26865C20.5313 7.93115 21.2063 7.7624 21.9376 7.7624C25.3126 7.7624 29.5313 10.5187 33.7501 14.6812C31.7813 16.8187 29.8126 19.2937 27.9001 21.9937C24.6376 22.2749 21.5438 22.7812 18.6188 23.3999C18.2813 22.1062 18.0563 20.8687 17.8313 19.6874ZM3.9376 35.9999C3.9376 33.3562 7.14385 30.5437 12.7688 28.4624C13.8938 28.0124 15.1313 27.6187 16.3688 27.2812C17.2688 30.0937 18.3938 33.0749 19.7438 36.0562C18.3938 39.0374 17.2126 41.9624 16.3688 44.7749C8.60635 42.5249 3.9376 39.1499 3.9376 35.9999ZM19.9688 63.7312C17.6626 62.3812 16.8751 58.2187 17.8313 52.3124C18.0001 51.1312 18.2813 49.8937 18.6188 48.5999C21.5438 49.2749 24.6376 49.7249 27.9001 50.0062C29.8126 52.7062 31.7813 55.1249 33.7501 57.3187C29.5876 61.4249 25.3688 64.2374 21.9376 64.2374C21.2063 64.2374 20.5313 64.0687 19.9688 63.7312ZM54.1688 52.3124C55.1251 58.2187 54.3376 62.3812 52.0313 63.7312C51.4688 64.0687 50.7938 64.2374 50.0626 64.2374C46.6876 64.2374 42.4688 61.4812 38.2501 57.3187C40.2188 55.1812 42.1876 52.7062 44.1001 50.0062C47.3626 49.7249 50.4563 49.2187 53.3813 48.5999C53.7188 49.8937 53.9438 51.1312 54.1688 52.3124ZM59.2313 43.5374C58.1063 43.9874 56.8688 44.3812 55.6313 44.7187C54.7313 41.9062 53.6063 38.9249 52.2563 35.9437C53.6063 32.9624 54.7876 30.0374 55.6313 27.2249C63.3938 29.4749 68.0626 32.8499 68.0626 35.9999C68.0626 38.6437 64.8001 41.4562 59.2313 43.5374Z" fill="#61DAFB"/>
</svg>
