<svg width="72" height="72" viewBox="0 0 72 72" fill="none" xmlns="http://www.w3.org/2000/svg">
<path fill-rule="evenodd" clip-rule="evenodd" d="M0.685791 31.5877C0.685791 31.9832 0.802229 32.2442 0.867479 32.4979C1.29273 34.1477 2.20679 35.5635 3.29129 36.855C4.83592 38.6955 6.7276 40.1771 8.66542 41.5704C10.3462 42.7787 12.0612 43.9599 13.7487 45.1592C14.0384 45.3651 14.3124 45.6019 14.6268 45.8544C14.3562 46.0007 14.1312 46.1295 13.8972 46.2482C11.6703 47.3777 9.52773 48.6439 7.55279 50.1778C6.36254 51.1026 5.21167 52.0852 4.39885 53.3694C3.09104 55.4349 2.6281 57.6354 3.60292 59.985C3.88754 60.6712 4.32179 61.2641 4.93435 61.7023C5.13292 61.8441 5.35567 61.9847 5.58798 62.0398C6.1831 62.1799 6.78948 62.2716 7.39192 62.3824L9.09798 62.3813C10.9846 62.2131 12.7019 61.5667 14.2539 60.4957C16.6794 58.8217 18.3134 56.5774 19.016 53.6968C19.5267 51.6032 19.5475 49.5073 18.9457 47.4232C18.89 47.2297 18.8197 47.0402 18.7465 46.8529C18.6734 46.6656 18.5874 46.4833 18.4861 46.2499L22.3539 44.0257L22.4118 44.0753C22.3415 44.3053 22.2667 44.5348 22.2031 44.7671C21.7435 46.4456 21.4381 48.1534 21.5478 49.8954C21.6648 51.7517 22.1829 53.4893 23.2696 55.0401C24.1482 56.2944 26.2419 56.3411 27.1756 55.0823C27.5069 54.6351 27.8281 54.1676 28.0694 53.6687C28.7 52.3665 29.2839 51.0413 29.8863 49.725L29.9915 49.4842C29.9482 50.1075 29.8975 50.6548 29.8745 51.2027C29.8385 52.0583 29.8885 52.9088 30.181 53.7227C30.4314 54.4191 30.8572 54.9394 31.6548 55.0311C32.2004 55.0935 32.6352 54.8437 33.0363 54.5271C33.6629 54.0326 34.172 53.4217 34.55 52.7276C35.6193 50.7639 36.7173 48.8121 37.6865 46.7989C38.735 44.6214 39.6519 42.3804 40.6255 40.1659L40.7864 39.7733C41.0165 40.6772 41.1768 41.5626 41.4721 42.4007C41.8152 43.3732 42.2399 44.3227 42.7023 45.2458C42.9211 45.6817 42.8958 45.9647 42.5926 46.3303C41.3236 47.8603 40.0765 49.4089 38.8284 50.9557C38.5522 51.2972 38.2771 51.6448 38.047 52.0177C37.9081 52.2444 37.8158 52.5206 37.777 52.785C37.7022 53.2901 38.0144 53.7772 38.555 53.8937C39.0489 54 39.5748 54.0394 40.0782 54.0023C41.8203 53.874 43.402 53.2626 44.8004 52.2264C46.6122 50.8843 47.1939 49.0528 46.7551 46.8821C46.6364 46.2932 46.4266 45.7206 46.2224 45.153C46.1307 44.8971 46.1245 44.7176 46.2916 44.4791C47.74 42.4108 48.9775 40.2165 50.1284 37.9716C50.174 37.8832 50.2207 37.7949 50.3005 37.7004C50.6735 39.6411 51.2349 41.5114 52.2406 43.2084C51.7276 43.7029 51.2197 44.1512 50.7601 44.6451C49.7482 45.7329 48.8707 46.9142 48.4128 48.3547C48.2159 48.9757 48.0646 49.6069 48.1524 50.2701C48.2885 51.3 49.1322 51.9694 50.1453 51.7348C52.3132 51.2331 54.1846 50.2116 55.552 48.402C56.4723 47.1836 56.5561 45.8246 56.1708 44.4009C56.065 44.0139 55.9396 43.6331 55.8046 43.1893C56.3395 43.0234 56.861 42.8242 57.4004 42.7011C60.2011 42.0621 62.9714 42.1734 65.6703 43.1848C67.2459 43.7754 68.5188 44.7638 69.2737 46.3185C70.1956 48.2192 69.686 50.0226 67.8944 51.2241C67.7273 51.336 67.5361 51.4243 67.3977 51.5644C67.3128 51.6504 67.2616 51.8226 67.2824 51.9412C67.2942 52.0104 67.477 52.0971 67.5822 52.0959C68.1712 52.0914 68.6487 51.7826 69.1072 51.4654C70.2558 50.6706 71.0939 49.6012 71.2745 48.1933L71.3099 48.0876L71.2666 47.1707C71.2492 47.1178 71.2795 47.0655 71.2756 47.0256C71.0315 44.9753 69.9363 43.3851 68.3433 42.1386C66.4983 40.6958 64.3197 40.1017 62.0157 40.0078C60.1381 39.9313 58.2925 40.2103 56.5229 40.8532C56.0184 41.0361 55.5183 41.2526 55.0109 41.4568C54.9429 41.3336 54.8697 41.2155 54.8095 41.0934C54.2887 40.0269 53.6575 39.0077 53.518 37.7848C53.419 36.9163 53.2975 36.0489 53.504 35.19C53.7025 34.3637 53.9613 33.5514 54.2049 32.7364C54.3303 32.3168 54.242 32.0816 53.8415 31.8926C53.702 31.8268 53.5501 31.7694 53.3994 31.7475C52.415 31.6046 51.4441 31.6862 50.4907 31.9635C50.1532 32.0619 49.9079 32.2509 49.8331 32.6244C49.7904 32.8388 49.7032 33.0441 49.6424 33.2556C49.3932 34.1347 49.2166 35.0308 48.8139 35.8684C47.8047 37.9693 46.6527 39.9909 45.4737 41.9979C45.346 42.2145 45.2116 42.4271 45.0507 42.6898C44.6367 41.8236 44.1952 41.0462 44.0613 40.1349C43.91 39.1044 43.7907 38.0756 44.0472 37.053C44.2379 36.2903 44.4871 35.5416 44.7166 34.7889C44.8252 34.4312 44.7751 34.2433 44.4511 34.0549C44.2874 33.9598 44.1024 33.8754 43.9179 33.8479C42.8969 33.6966 41.8912 33.7759 40.9062 34.0942C40.6008 34.1933 40.4405 34.3907 40.3471 34.7057C40.0726 35.6349 39.8386 36.5867 39.4533 37.4704C37.8929 41.0479 36.2875 44.6068 34.6839 48.1652C34.3492 48.9082 33.9571 49.6254 33.5797 50.3488C33.484 50.5322 33.3445 50.6936 33.2253 50.8657C33.1297 50.7527 33.0925 50.6751 33.0931 50.5974C33.0959 50.1401 33.0414 49.6693 33.1285 49.2272C33.3924 47.8896 33.6961 46.5592 34.0162 45.234C34.2805 44.1394 34.5882 43.0549 34.8813 41.9676C34.9797 41.6036 34.9814 41.2633 34.7199 40.9573C34.2805 40.4449 33.3625 40.3324 32.818 40.7272L32.5773 40.8634L32.624 40.4753C32.7387 39.6433 32.7618 38.8142 32.5334 37.9946C32.2488 36.9731 31.5198 36.3853 30.46 36.4179C29.9662 36.4331 29.4475 36.5175 28.9902 36.6975C27.067 37.4512 25.5882 38.7861 24.3294 40.392C24.2152 40.5377 24.0644 40.6704 23.9035 40.7599C22.2762 41.6621 20.6439 42.5531 19.012 43.4475L17.1957 44.4426C16.7086 43.9779 16.2659 43.4959 15.7636 43.0869C14.2297 41.8359 12.671 40.6159 11.1264 39.3789C9.75723 38.2826 8.43085 37.1407 7.4161 35.6889C6.66123 34.6089 6.17467 33.4271 6.12798 32.0917C6.06892 30.3902 6.55154 28.8354 7.41779 27.3881C8.52592 25.5364 10.0374 24.0502 11.699 22.7042C13.4568 21.2811 15.358 20.0728 17.3285 18.9697C20.0853 17.4268 22.9209 16.0611 25.9612 15.1594C29.0785 14.2346 32.2415 13.7053 35.504 14.0743C36.7865 14.2194 38.0318 14.5131 39.1754 15.1403C40.0512 15.6201 40.7695 16.2484 41.1037 17.2305C41.4333 18.1969 41.4232 19.1762 41.1948 20.1577C40.7307 22.1456 39.6423 23.7842 38.2726 25.2484C36.026 27.6486 33.2855 29.2826 30.2002 30.3621C28.4199 30.9848 26.5884 31.3757 24.7074 31.5338C23.1723 31.6626 21.6693 31.5264 20.2158 30.9926C19.2534 30.6388 18.4152 30.0977 17.7414 29.3124C17.621 29.1718 17.4669 29.0194 17.2424 29.151C17.0225 29.2804 16.9837 29.4896 17.0574 29.7017C17.1805 30.0538 17.2942 30.4206 17.486 30.7356C17.968 31.5259 18.6712 32.0991 19.4452 32.5907C20.9319 33.5362 22.5935 33.8541 24.3164 33.9278C26.9309 34.0408 29.4819 33.6504 31.9968 32.949C35.5872 31.9478 38.7091 30.1793 41.2128 27.3893C43.2974 25.0661 44.7864 22.4443 45.1053 19.2786C45.2611 17.7334 45.0952 16.2197 44.3718 14.8101C43.5871 13.2829 42.3395 12.1472 40.8477 11.3648C38.6754 10.2257 36.3309 9.5625 33.911 9.5625H31.4866C28.556 9.5625 25.7227 10.4023 22.9687 11.4041C20.884 12.1629 18.8399 13.0584 16.8554 14.0496C12.5337 16.209 8.50904 18.8128 5.20323 22.3931C3.55623 24.1768 2.16179 26.145 1.35967 28.4625C1.1251 29.1409 0.902354 29.8682 0.734729 30.5696L0.685791 31.5877ZM16.3942 50.8269C16.2069 53.3351 15.07 55.3686 13.2121 57.0156C12.167 57.9414 10.9683 58.6007 9.57217 58.8324C9.06592 58.9163 8.54785 58.9365 8.05679 58.7267C7.35648 58.4274 7.19954 57.8059 7.18604 57.1438C7.16523 56.0886 7.53479 55.1346 8.0416 54.2267C8.7031 53.0432 9.67285 52.1409 10.7084 51.2983C12.3397 49.9702 14.1093 48.8464 15.9217 47.7855L16.0584 47.7292C16.3385 48.7642 16.4718 49.7863 16.3942 50.8269ZM30.5455 39.9263C30.4134 40.7273 30.248 41.5288 30.014 42.3051C29.2051 44.9921 28.1662 47.5959 27.0429 50.1649C26.8353 50.6402 26.5332 51.0739 26.2705 51.5244C26.23 51.5942 26.1699 51.6544 26.1114 51.7123C25.7862 52.0335 25.478 52.0166 25.3137 51.5964C25.1225 51.1082 25.0049 50.5856 24.9037 50.0687C24.8356 49.7216 24.8519 49.3571 24.8305 49.0016C24.8525 46.4737 25.6237 44.1765 26.932 42.0379C27.4715 41.1559 28.0587 40.3155 28.9559 39.7575C29.2315 39.5859 29.5409 39.4481 29.8531 39.3604C30.3312 39.2259 30.6249 39.447 30.5455 39.9263ZM40.2003 52.227L43.6704 48.1753C43.8149 49.68 41.2572 52.6838 40.2003 52.227ZM51.2832 49.5006C51.038 49.6412 50.7708 49.7424 50.5194 49.8724C50.2893 49.9916 50.2134 49.8713 50.2066 49.6732C50.2021 49.5388 50.2218 49.3982 50.2589 49.2677C50.7275 47.6151 51.5898 46.2043 52.8729 45.0568L52.9629 45.0107C53.5732 46.7179 52.8678 48.5927 51.2832 49.5006Z" fill="#CB6699"/>
</svg>
