<svg width="72" height="72" viewBox="0 0 72 72" fill="none" xmlns="http://www.w3.org/2000/svg">
<path fill-rule="evenodd" clip-rule="evenodd" d="M36.0529 71.0009C55.3326 70.9717 70.9397 55.2886 70.9397 35.9431C70.9397 16.912 55.4046 1.23855 36.8449 0.907234C17.3531 0.559609 1.06537 16.376 1.0603 35.5555C1.05468 55.2875 16.5921 71.029 36.0529 71.0009ZM35.9961 2.6043C54.5062 2.59811 69.2544 17.6371 69.2488 36.5118C69.2426 54.3312 54.1035 69.238 36.0096 69.242C17.5759 69.2459 2.75174 54.3003 2.7523 35.7125C2.75343 17.6039 17.8082 2.61048 35.9961 2.6043ZM22.0258 20.1914C22.3284 21.2 21.4813 21.551 20.5807 21.6213C19.6329 21.6944 18.6857 21.7659 17.5854 21.8497C21.2169 32.6688 24.7939 43.3276 28.4557 54.2345C28.7167 53.8075 28.8242 53.6872 28.8714 53.5465C30.8818 47.5379 32.9034 41.5332 34.8626 35.5077C35.0415 34.9582 34.9526 34.2303 34.7569 33.6655C33.7202 30.673 32.4782 27.7458 31.5692 24.7173C30.9476 22.6439 30.123 21.3024 27.6722 21.5425C27.2548 21.5836 26.7452 20.6853 26.2777 20.2212C26.8431 19.8837 27.4044 19.2627 27.9748 19.2543C32.9653 19.1784 37.9575 19.1784 42.9474 19.2588C43.5201 19.2684 44.0814 19.9057 44.6467 20.2516C44.1517 20.7039 43.7248 21.3822 43.146 21.5572C42.2173 21.8373 41.1874 21.7844 40.0759 21.8834C43.7113 32.6975 47.2719 43.2905 50.9597 54.2609C52.6084 48.7844 54.1423 43.7557 55.6341 38.714C56.9649 34.2134 56.1718 30.0104 53.7654 26.0465C53.0421 24.8545 52.1533 23.698 51.7432 22.3981C51.2775 20.9193 50.8905 19.2357 51.1374 17.7524C51.5565 15.2386 53.4853 13.9904 56.0953 13.7514C41.8123 0.495485 19.3674 5.24073 11.097 19.6435C14.2807 19.4967 17.3205 19.3038 20.3625 19.2622C20.9374 19.2549 21.8908 19.7409 22.0258 20.1914ZM27.7166 64.0501C27.6502 64.2442 27.6463 64.4602 27.594 64.7825C33.7494 66.4891 39.7862 66.3659 45.9647 64.2841L36.5259 38.4316C33.5053 47.2128 30.6084 55.63 27.7166 64.0501ZM22.9601 62.8812L8.73955 23.8719C2.32424 36.4032 7.20449 55.5226 22.9601 62.8812ZM65.9509 37.8151C66.402 31.8897 64.3579 23.6857 62.5927 22.5573C62.3959 24.737 62.5331 27.1619 61.9076 29.3714C60.4356 34.5774 58.6356 39.6927 56.9019 44.8222C55.0176 50.3977 53.0589 55.9479 51.1324 61.5093C60.1841 56.1436 65.1583 48.2242 65.9509 37.8151Z" fill="#F0F5F8"/>
</svg>
