<svg width="42" height="42" viewBox="0 0 42 42" fill="none" xmlns="http://www.w3.org/2000/svg">
<g clip-path="url(#clip0_517_287)">
<path d="M35 0H7C3.13401 0 0 3.13401 0 7V35C0 38.866 3.13401 42 7 42H35C38.866 42 42 38.866 42 35V7C42 3.13401 38.866 0 35 0Z" fill="#231917"/>
<path d="M9.28735 16.1002V14.7002C8.51415 14.7002 7.88735 15.327 7.88735 16.1002H9.28735ZM30.2874 16.1002H31.6874C31.6874 15.327 31.0606 14.7002 30.2874 14.7002V16.1002ZM33.7874 28.843C33.7874 28.0698 33.1606 27.443 32.3874 27.443C31.6141 27.443 30.9874 28.0698 30.9874 28.843H33.7874ZM8.58735 28.843C8.58735 28.0698 7.96055 27.443 7.18735 27.443C6.41415 27.443 5.78735 28.0698 5.78735 28.843H8.58735ZM30.6126 16.243C29.8394 16.243 29.2126 16.8698 29.2126 17.643C29.2126 18.4162 29.8394 19.043 30.6126 19.043V16.243ZM34.7125 17.643L36.0895 17.391C35.9679 16.726 35.3884 16.243 34.7125 16.243V17.643ZM30.6126 21.843C29.8394 21.843 29.2126 22.4698 29.2126 23.243C29.2126 24.0162 29.8394 24.643 30.6126 24.643V21.843ZM18.4278 12.2652C17.9472 12.8709 18.0486 13.7515 18.6542 14.2322C19.26 14.7128 20.1406 14.6113 20.6212 14.0056L18.4278 12.2652ZM21.319 7.26172C21.941 6.80246 22.0729 5.92591 21.6137 5.30387C21.1543 4.68185 20.2778 4.5499 19.6558 5.00916L21.319 7.26172ZM12.8096 12.2652C12.329 12.8709 12.4304 13.7515 13.0361 14.2322C13.6418 14.7128 14.5224 14.6113 15.003 14.0056L12.8096 12.2652ZM15.7008 7.26172C16.3228 6.80246 16.4547 5.92591 15.9955 5.30387C15.5361 4.68185 14.6596 4.5499 14.0376 5.00916L15.7008 7.26172ZM24.0463 12.2652C23.5657 12.8709 23.667 13.7515 24.2728 14.2322C24.8785 14.7128 25.7591 14.6113 26.2397 14.0056L24.0463 12.2652ZM26.9374 7.26172C27.5595 6.80246 27.6913 5.92591 27.2321 5.30387C26.7729 4.68185 25.8964 4.5499 25.2742 5.00916L26.9374 7.26172ZM7.88735 16.1002C7.88735 18.5723 7.98107 22.682 9.4677 26.2012C10.2215 27.9855 11.3572 29.6791 13.0721 30.9232C14.7987 32.176 17.0124 32.9002 19.7874 32.9002V30.1002C17.5223 30.1002 15.9035 29.5182 14.7164 28.6569C13.5175 27.787 12.6582 26.5586 12.047 25.1117C10.8036 22.1683 10.6874 18.578 10.6874 16.1002H7.88735ZM19.7874 32.9002C22.5459 32.9002 24.7526 32.2189 26.4802 31.0165C28.2007 29.8189 29.3436 28.1762 30.1027 26.4175C31.5958 22.9582 31.6874 18.8363 31.6874 16.1002H28.8874C28.8874 18.8641 28.7689 22.4422 27.532 25.3078C26.9261 26.7118 26.0741 27.8876 24.8807 28.7184C23.6946 29.544 22.0687 30.1002 19.7874 30.1002V32.9002ZM30.2874 14.7002H9.28735V17.5002H30.2874V14.7002ZM30.9874 28.843C30.9874 30.0366 30.0999 31.4117 28.017 32.5689C25.9815 33.6997 23.0746 34.443 19.7874 34.443V37.243C23.4589 37.243 26.852 36.4192 29.3768 35.0166C31.8541 33.6402 33.7874 31.5153 33.7874 28.843H30.9874ZM19.7874 34.443C16.5 34.443 13.5932 33.6997 11.5577 32.5689C9.47479 31.4117 8.58735 30.0366 8.58735 28.843H5.78735C5.78735 31.5153 7.72053 33.6402 10.1979 35.0166C12.7227 36.4192 16.1159 37.243 19.7874 37.243V34.443ZM30.6126 19.043H34.7125V16.243H30.6126V19.043ZM33.3353 17.895C33.4735 18.6503 33.4515 19.7269 33.0638 20.5414C32.8818 20.924 32.63 21.2288 32.2859 21.4451C31.9417 21.6614 31.42 21.843 30.6126 21.843V24.643C31.8551 24.643 32.9135 24.3578 33.7759 23.8157C34.6381 23.2738 35.2191 22.5286 35.5922 21.7446C36.3151 20.2257 36.2929 18.5023 36.0895 17.391L33.3353 17.895ZM20.6212 14.0056C21.283 13.1716 22.3261 10.8793 20.6163 8.74908L18.4326 10.5017C18.7252 10.8662 18.7704 11.2026 18.7313 11.5031C18.6863 11.8501 18.5232 12.145 18.4278 12.2652L20.6212 14.0056ZM20.6163 8.74908C20.5061 8.61178 20.4914 8.52511 20.4882 8.47721C20.4837 8.41305 20.4959 8.3071 20.5663 8.15111C20.721 7.80832 21.052 7.45878 21.319 7.26172L19.6558 5.00916C19.1348 5.39375 18.4242 6.09119 18.0143 6.99897C17.5696 7.98398 17.4673 9.29897 18.4326 10.5017L20.6163 8.74908ZM15.003 14.0056C15.6648 13.1716 16.7079 10.8793 14.9981 8.74908L12.8144 10.5017C13.107 10.8662 13.1522 11.2026 13.1131 11.5031C13.0681 11.8501 12.905 12.145 12.8096 12.2652L15.003 14.0056ZM14.9981 8.74908C14.8879 8.61178 14.8732 8.52511 14.87 8.47721C14.8655 8.41305 14.8777 8.3071 14.9481 8.15111C15.1028 7.80832 15.4338 7.45878 15.7008 7.26172L14.0376 5.00916C13.5167 5.39375 12.806 6.09119 12.3961 6.99897C11.9514 7.98398 11.8491 9.29897 12.8144 10.5017L14.9981 8.74908ZM26.2397 14.0056C26.9015 13.1716 27.9446 10.8793 26.2348 8.74908L24.0512 10.5017C24.3437 10.8662 24.3889 11.2026 24.3498 11.5031C24.3049 11.8501 24.1418 12.145 24.0463 12.2652L26.2397 14.0056ZM26.2348 8.74908C26.1246 8.61178 26.11 8.52511 26.1067 8.47721C26.1023 8.41305 26.1144 8.3071 26.1848 8.15111C26.3396 7.80832 26.6705 7.45878 26.9374 7.26172L25.2742 5.00916C24.7534 5.39375 24.0427 6.09119 23.6329 6.99897C23.1881 7.98398 23.0859 9.29897 24.0512 10.5017L26.2348 8.74908Z" fill="#E68541"/>
</g>
<defs>
<clipPath id="clip0_517_287">
<rect width="42" height="42" fill="white"/>
</clipPath>
</defs>
</svg>
