<svg width="170" height="16" viewBox="0 0 170 16" fill="none" xmlns="http://www.w3.org/2000/svg">
<path d="M9.5 0L0 16H19L9.5 0Z" fill="url(#paint0_linear_1301_5)"/>
<path fill-rule="evenodd" clip-rule="evenodd" d="M66.7838 16C67.9658 16 69.0721 15.7874 70.1027 15.3622C71.1333 14.9369 72.027 14.3568 72.7838 13.6216C73.5405 12.8865 74.1351 12.036 74.5676 11.0703C75 10.1045 75.2162 9.08108 75.2162 8C75.2162 6.91892 75 5.8955 74.5676 4.92973C74.1351 3.96396 73.5405 3.11351 72.7838 2.37838C72.027 1.64324 71.1333 1.06306 70.1027 0.637838C69.0721 0.212613 67.9658 0 66.7838 0C65.5874 0 64.4775 0.212613 63.4541 0.637838C62.4306 1.06306 61.5405 1.64324 60.7838 2.37838C60.027 3.11351 59.4324 3.96396 59 4.92973C58.5676 5.8955 58.3513 6.91892 58.3513 8C58.3513 9.08108 58.5676 10.1045 59 11.0703C59.4324 12.036 60.027 12.8865 60.7838 13.6216C61.5405 14.3568 62.4306 14.9369 63.4541 15.3622C64.4775 15.7874 65.5874 16 66.7838 16ZM65.1189 12C65.6378 12.2162 66.1928 12.3243 66.7838 12.3243C67.3748 12.3243 67.9261 12.2162 68.4378 12C68.9495 11.7838 69.3964 11.4811 69.7784 11.0919C70.1604 10.7027 70.4595 10.245 70.6757 9.71892C70.8919 9.19279 71 8.61982 71 8C71 7.38018 70.8919 6.80721 70.6757 6.28108C70.4595 5.75495 70.1604 5.2973 69.7784 4.90811C69.3964 4.51892 68.9495 4.21622 68.4378 4C67.9261 3.78378 67.3748 3.67568 66.7838 3.67568C66.1928 3.67568 65.6378 3.78378 65.1189 4C64.6 4.21622 64.1532 4.51892 63.7784 4.90811C63.4036 5.2973 63.1081 5.75495 62.8919 6.28108C62.6757 6.80721 62.5676 7.38018 62.5676 8C62.5676 8.61982 62.6757 9.19279 62.8919 9.71892C63.1081 10.245 63.4036 10.7027 63.7784 11.0919C64.1532 11.4811 64.6 11.7838 65.1189 12Z" fill="url(#paint1_linear_1301_5)"/>
<path fill-rule="evenodd" clip-rule="evenodd" d="M31.1081 15.5676V11.027H33.8108C34.6468 11.027 35.4108 10.8937 36.1027 10.627C36.7946 10.3604 37.3856 9.98919 37.8757 9.51351C38.3658 9.03784 38.7477 8.47928 39.0216 7.83784C39.2955 7.1964 39.4324 6.49369 39.4324 5.72973C39.4324 4.98018 39.2955 4.28108 39.0216 3.63243C38.7477 2.98378 38.3658 2.42162 37.8757 1.94595C37.3856 1.47027 36.7946 1.0991 36.1027 0.832432C35.4108 0.565766 34.6468 0.432432 33.8108 0.432432H27V15.5676H31.1081ZM33.5946 7.35135H31.1081V4.10811H33.5946C34.0847 4.10811 34.4955 4.27027 34.827 4.59459C35.1586 4.91892 35.3243 5.2973 35.3243 5.72973C35.3243 6.16216 35.1586 6.54054 34.827 6.86486C34.4955 7.18919 34.0847 7.35135 33.5946 7.35135Z" fill="url(#paint2_linear_1301_5)"/>
<path d="M46.1351 9.72973V15.5676H42.027V0.432432H46.1351V6.05405H51.6487V0.432432H55.7568V15.5676H51.6487V9.72973H46.1351Z" fill="url(#paint3_linear_1301_5)"/>
<path d="M84.8378 15.5676V4.10811H89.0541V0.432432H76.5135V4.10811H80.7297V15.5676H84.8378Z" fill="url(#paint4_linear_1301_5)"/>
<path fill-rule="evenodd" clip-rule="evenodd" d="M102.103 15.3622C101.072 15.7874 99.9658 16 98.7838 16C97.5874 16 96.4775 15.7874 95.4541 15.3622C94.4306 14.9369 93.5405 14.3568 92.7838 13.6216C92.027 12.8865 91.4324 12.036 91 11.0703C90.5676 10.1045 90.3513 9.08108 90.3513 8C90.3513 6.91892 90.5676 5.8955 91 4.92973C91.4324 3.96396 92.027 3.11351 92.7838 2.37838C93.5405 1.64324 94.4306 1.06306 95.4541 0.637838C96.4775 0.212613 97.5874 0 98.7838 0C99.9658 0 101.072 0.212613 102.103 0.637838C103.133 1.06306 104.027 1.64324 104.784 2.37838C105.541 3.11351 106.135 3.96396 106.568 4.92973C107 5.8955 107.216 6.91892 107.216 8C107.216 9.08108 107 10.1045 106.568 11.0703C106.135 12.036 105.541 12.8865 104.784 13.6216C104.027 14.3568 103.133 14.9369 102.103 15.3622ZM98.7838 12.3243C98.1928 12.3243 97.6378 12.2162 97.1189 12C96.6 11.7838 96.1532 11.4811 95.7784 11.0919C95.4036 10.7027 95.1081 10.245 94.8919 9.71892C94.6757 9.19279 94.5676 8.61982 94.5676 8C94.5676 7.38018 94.6757 6.80721 94.8919 6.28108C95.1081 5.75495 95.4036 5.2973 95.7784 4.90811C96.1532 4.51892 96.6 4.21622 97.1189 4C97.6378 3.78378 98.1928 3.67568 98.7838 3.67568C99.3748 3.67568 99.9261 3.78378 100.438 4C100.95 4.21622 101.396 4.51892 101.778 4.90811C102.16 5.2973 102.459 5.75495 102.676 6.28108C102.892 6.80721 103 7.38018 103 8C103 8.61982 102.892 9.19279 102.676 9.71892C102.459 10.245 102.16 10.7027 101.778 11.0919C101.396 11.4811 100.95 11.7838 100.438 12C99.9261 12.2162 99.3748 12.3243 98.7838 12.3243Z" fill="url(#paint5_linear_1301_5)"/>
<path d="M117.119 15.6C116.369 15.8667 115.519 16 114.568 16C113.559 16 112.679 15.8667 111.93 15.6C111.18 15.3333 110.553 15.0342 110.049 14.7027C109.458 14.3279 108.946 13.8955 108.514 13.4054L110.892 10.9189C111.151 11.2216 111.447 11.4955 111.778 11.7405C112.067 11.9423 112.409 12.1261 112.805 12.2919C113.202 12.4577 113.645 12.5405 114.135 12.5405C114.741 12.5405 115.216 12.3784 115.562 12.0541C115.908 11.7297 116.081 11.3514 116.081 10.9189C116.081 10.573 115.908 10.3027 115.562 10.1081C115.216 9.91351 114.784 9.72973 114.265 9.55676C113.746 9.38378 113.18 9.1964 112.568 8.99459C111.955 8.79279 111.389 8.51892 110.87 8.17297C110.351 7.82703 109.919 7.37297 109.573 6.81081C109.227 6.24865 109.054 5.52793 109.054 4.64865C109.054 4.05766 109.191 3.48108 109.465 2.91892C109.739 2.35676 110.124 1.85946 110.622 1.42703C111.119 0.994595 111.721 0.648649 112.427 0.389189C113.133 0.12973 113.919 0 114.784 0C115.706 0 116.499 0.111712 117.162 0.335135C117.825 0.558559 118.373 0.807207 118.805 1.08108C119.31 1.3982 119.735 1.75856 120.081 2.16216L117.703 4.64865C117.501 4.43243 117.27 4.23784 117.011 4.06486C116.795 3.90631 116.535 3.76577 116.232 3.64324C115.93 3.52072 115.591 3.45946 115.216 3.45946C114.726 3.45946 114.333 3.59279 114.038 3.85946C113.742 4.12613 113.595 4.42523 113.595 4.75676C113.595 5.1027 113.768 5.37297 114.114 5.56757C114.459 5.76216 114.892 5.94595 115.411 6.11892C115.93 6.29189 116.495 6.47928 117.108 6.68108C117.721 6.88288 118.286 7.15676 118.805 7.5027C119.324 7.84865 119.757 8.3027 120.103 8.86487C120.449 9.42703 120.622 10.1477 120.622 11.027C120.622 11.7045 120.485 12.3423 120.211 12.9405C119.937 13.5387 119.541 14.0649 119.022 14.5189C118.503 14.973 117.868 15.3333 117.119 15.6Z" fill="url(#paint6_linear_1301_5)"/>
<path d="M127.108 15.5676V7.13514L133.616 15.5676H137.162V0.432432H133.054V8.86486L126.568 0.432432H123V15.5676H127.108Z" fill="url(#paint7_linear_1301_5)"/>
<path fill-rule="evenodd" clip-rule="evenodd" d="M144.405 12.3243L143.324 15.5676H138.892L144.622 0.432432H149.162L154.892 15.5676H150.459L149.378 12.3243H144.405ZM145.486 9.08108L146.892 4.64865L148.297 9.08108H145.486Z" fill="url(#paint8_linear_1301_5)"/>
<path fill-rule="evenodd" clip-rule="evenodd" d="M160.73 11.027V15.5676H156.622V0.432432H163.432C164.268 0.432432 165.032 0.565766 165.724 0.832432C166.416 1.0991 167.007 1.47027 167.497 1.94595C167.987 2.42162 168.369 2.98378 168.643 3.63243C168.917 4.28108 169.054 4.98018 169.054 5.72973C169.054 6.49369 168.917 7.1964 168.643 7.83784C168.369 8.47928 167.987 9.03784 167.497 9.51351C167.007 9.98919 166.416 10.3604 165.724 10.627C165.032 10.8937 164.268 11.027 163.432 11.027H160.73ZM163.216 7.35135H160.73V4.10811H163.216C163.706 4.10811 164.117 4.27027 164.449 4.59459C164.78 4.91892 164.946 5.2973 164.946 5.72973C164.946 6.16216 164.78 6.54054 164.449 6.86486C164.117 7.18919 163.706 7.35135 163.216 7.35135Z" fill="url(#paint9_linear_1301_5)"/>
<defs>
<linearGradient id="paint0_linear_1301_5" x1="9.5" y1="20" x2="16.6529" y2="3.01176" gradientUnits="userSpaceOnUse">
<stop stop-color="#FFC593"/>
<stop offset="0.519452" stop-color="#BC7198"/>
<stop offset="1" stop-color="#5A77FF"/>
</linearGradient>
<linearGradient id="paint1_linear_1301_5" x1="9.5" y1="20" x2="16.6529" y2="3.01176" gradientUnits="userSpaceOnUse">
<stop stop-color="#FFC593"/>
<stop offset="0.519452" stop-color="#BC7198"/>
<stop offset="1" stop-color="#5A77FF"/>
</linearGradient>
<linearGradient id="paint2_linear_1301_5" x1="9.5" y1="20" x2="16.6529" y2="3.01176" gradientUnits="userSpaceOnUse">
<stop stop-color="#FFC593"/>
<stop offset="0.519452" stop-color="#BC7198"/>
<stop offset="1" stop-color="#5A77FF"/>
</linearGradient>
<linearGradient id="paint3_linear_1301_5" x1="9.5" y1="20" x2="16.6529" y2="3.01176" gradientUnits="userSpaceOnUse">
<stop stop-color="#FFC593"/>
<stop offset="0.519452" stop-color="#BC7198"/>
<stop offset="1" stop-color="#5A77FF"/>
</linearGradient>
<linearGradient id="paint4_linear_1301_5" x1="9.5" y1="20" x2="16.6529" y2="3.01176" gradientUnits="userSpaceOnUse">
<stop stop-color="#FFC593"/>
<stop offset="0.519452" stop-color="#BC7198"/>
<stop offset="1" stop-color="#5A77FF"/>
</linearGradient>
<linearGradient id="paint5_linear_1301_5" x1="9.5" y1="20" x2="16.6529" y2="3.01176" gradientUnits="userSpaceOnUse">
<stop stop-color="#FFC593"/>
<stop offset="0.519452" stop-color="#BC7198"/>
<stop offset="1" stop-color="#5A77FF"/>
</linearGradient>
<linearGradient id="paint6_linear_1301_5" x1="9.5" y1="20" x2="16.6529" y2="3.01176" gradientUnits="userSpaceOnUse">
<stop stop-color="#FFC593"/>
<stop offset="0.519452" stop-color="#BC7198"/>
<stop offset="1" stop-color="#5A77FF"/>
</linearGradient>
<linearGradient id="paint7_linear_1301_5" x1="9.5" y1="20" x2="16.6529" y2="3.01176" gradientUnits="userSpaceOnUse">
<stop stop-color="#FFC593"/>
<stop offset="0.519452" stop-color="#BC7198"/>
<stop offset="1" stop-color="#5A77FF"/>
</linearGradient>
<linearGradient id="paint8_linear_1301_5" x1="9.5" y1="20" x2="16.6529" y2="3.01176" gradientUnits="userSpaceOnUse">
<stop stop-color="#FFC593"/>
<stop offset="0.519452" stop-color="#BC7198"/>
<stop offset="1" stop-color="#5A77FF"/>
</linearGradient>
<linearGradient id="paint9_linear_1301_5" x1="9.5" y1="20" x2="16.6529" y2="3.01176" gradientUnits="userSpaceOnUse">
<stop stop-color="#FFC593"/>
<stop offset="0.519452" stop-color="#BC7198"/>
<stop offset="1" stop-color="#5A77FF"/>
</linearGradient>
</defs>
</svg>
