<svg width="139" height="50" viewBox="0 0 139 50" fill="none" xmlns="http://www.w3.org/2000/svg">
<g clip-path="url(#clip0_518_440)">
<path d="M42.4663 16.7493C42.6262 18.1166 44.0417 19.0134 45.8687 19.0134C47.6958 19.0134 48.9635 18.1281 48.9635 16.9109C48.9635 15.8308 48.1755 15.2334 46.1885 14.7853L44.0417 14.3142C41.0042 13.659 39.5084 12.1078 39.5084 9.68354C39.5084 6.62723 42.135 4.60486 45.8121 4.60486C49.4891 4.60486 52.0583 6.59261 52.1157 9.59121H48.8839C48.7699 8.18933 47.548 7.33938 45.8235 7.33938C44.099 7.33938 42.9804 8.15471 42.9804 9.38416C42.9804 10.4065 43.7799 10.9816 45.6751 11.4181L47.6735 11.8437C50.9734 12.5559 52.4125 13.9808 52.4125 16.5083C52.4125 19.7255 49.8204 21.7594 45.7324 21.7594C41.6445 21.7594 39.2467 19.8633 39.1434 16.75H42.4663V16.7493Z" fill="#567AE4"/>
<path d="M65.4387 21.4715H54.5222V4.89133H65.4387V7.75212H57.9705V11.7507H65.0163V14.4167H57.9705V18.5985H65.4387V21.4709V21.4715Z" fill="#567AE4"/>
<path d="M71.3747 21.4715H67.9257V4.89133H74.6746C78.4656 4.89133 80.6354 6.90216 80.6354 10.1771C80.6354 12.3026 79.5391 14.141 77.6439 14.8878L81.1151 21.4715H77.2094L74.1375 15.4051H71.374V21.4715H71.3747ZM71.3747 12.8885H74.3433C76.0793 12.8885 77.0954 11.8885 77.0954 10.2456C77.0954 8.60275 76.0219 7.60276 74.3089 7.60276H71.374V12.8885H71.3747Z" fill="#567AE4"/>
<path d="M90.3165 21.7587C85.3946 21.7587 82.3801 18.5184 82.3801 13.1302C82.3801 7.74193 85.3946 4.60416 90.2362 4.60416C94.0846 4.60416 96.9851 6.89062 97.4756 10.2456H94.0158C93.5138 8.51042 92.1091 7.47649 90.2477 7.47649C87.53 7.47649 85.8973 9.55657 85.8973 13.0833C85.8973 16.6101 87.6333 18.8742 90.3738 18.8742C92.6232 18.8742 94.1879 17.4838 94.2567 15.4275L94.2681 15.1634H90.6828V12.6353H97.6254V14.5083C97.6254 19.0235 94.9077 21.758 90.3172 21.758L90.3165 21.7587Z" fill="#567AE4"/>
<path d="M110.811 21.4715H99.8944V4.89133H110.811V7.75212H103.343V11.7507H110.389V14.4167H103.343V18.5985H110.811V21.4709V21.4715Z" fill="#567AE4"/>
<path d="M115.627 16.5884C115.65 17.9326 116.518 18.8171 117.82 18.8171C119.259 18.8171 120.036 17.921 120.036 16.2551V4.89133H123.484V16.2781C123.484 19.8056 121.383 21.8164 117.855 21.8164C114.326 21.8164 112.282 19.7601 112.282 16.5884H115.628H115.627Z" fill="#567AE4"/>
<path d="M129.054 16.7493C129.214 18.1165 130.63 19.0133 132.457 19.0133C134.284 19.0133 135.551 18.1281 135.551 16.9108C135.551 15.8307 134.763 15.2333 132.777 14.7853L130.63 14.3141C127.592 13.659 126.097 12.1078 126.097 9.68351C126.097 6.6272 128.723 4.60483 132.4 4.60483C136.077 4.60483 138.646 6.59258 138.704 9.59118H135.472C135.358 8.1893 134.136 7.33935 132.412 7.33935C130.687 7.33935 129.569 8.15468 129.569 9.38412C129.569 10.4065 130.368 10.9815 132.263 11.418L134.262 11.8437C137.562 12.5558 139.001 13.9808 139.001 16.5083C139.001 19.7255 136.409 21.7594 132.321 21.7594C128.233 21.7594 125.835 19.8633 125.732 16.7499H129.054L129.054 16.7493Z" fill="#567AE4"/>
<path d="M41.3267 26.1307H39.1434V43.7326H41.3267V26.1307Z" fill="#F68F6F"/>
<path d="M49.7738 43.734L43.3245 26.132H45.6157L50.8162 41.0626H50.8891L56.0902 26.132H58.3815L51.9321 43.734H49.7738Z" fill="#F68F6F"/>
<path d="M59.6998 34.9269C59.6998 29.4015 62.7913 25.8394 67.5795 25.8394C71.3861 25.8394 74.2839 28.1694 74.8412 31.6825H72.635C72.077 29.3771 70.0772 27.8645 67.5795 27.8645C64.1609 27.8645 61.9425 30.6459 61.9425 34.9269C61.9425 39.2079 64.1373 42.0022 67.5917 42.0022C70.1616 42.0022 72.0041 40.7578 72.635 38.6112H74.8412C74.041 42.0877 71.4468 44.0273 67.5795 44.0273C62.7548 44.0273 59.6998 40.5018 59.6998 34.9276V34.9269Z" fill="#F68F6F"/>
<path d="M88.7837 43.734H77.9462V26.132H88.7837V28.1083H80.1281V33.7558H88.335V35.7076H80.1281V41.7578H88.7837V43.734Z" fill="#F68F6F"/>
<path d="M91.6544 43.734V26.132H93.7756L103.352 39.9526H103.461V26.132H105.62V43.734H103.499L93.922 29.9623H93.8127V43.734H91.6544Z" fill="#F68F6F"/>
<path d="M109.011 43.734V26.132H111.193V34.7192H111.315L119.037 26.132H121.789L114.6 33.9269L122.431 43.734H119.643L113.085 35.4883L111.193 37.5861V43.734H109.011Z" fill="#F68F6F"/>
<path d="M139 34.9391C139 40.5256 135.896 44.0266 130.939 44.0266C125.981 44.0266 122.878 40.5256 122.878 34.9391C122.878 29.3526 125.981 25.8394 130.939 25.8394C135.896 25.8394 139 29.3526 139 34.9391ZM125.12 34.9391C125.12 39.2697 127.362 42.0015 130.939 42.0015C134.515 42.0015 136.758 39.269 136.758 34.9391C136.758 30.6092 134.515 27.8645 130.939 27.8645C127.362 27.8645 125.12 30.597 125.12 34.9391Z" fill="#F68F6F"/>
<path d="M28.3208 15.1817L23.8995 24.3154L11.5386 0H17.5554C19.4264 0 21.1401 1.0543 21.9929 2.73112L22.2526 3.24436L28.3208 15.1824V15.1817Z" fill="#F68F6F"/>
<path d="M31.9365 26.4952L27.576 35.4584C27.0976 36.4415 26.1031 37.0654 25.0135 37.0654H17.7262L23.9144 24.3466L23.8989 24.3147L28.3202 15.1811L29.1041 16.7208L31.8987 22.2183C32.5801 23.5577 32.5936 25.1436 31.9358 26.4946L31.9365 26.4952Z" fill="#FF7F50"/>
<path d="M4.09943 34.8183L8.52066 25.6847L20.881 50H14.8641C12.9932 50 11.2795 48.9457 10.4267 47.2689L10.1669 46.7557L4.09875 34.8176L4.09943 34.8183Z" fill="#567AE4"/>
<path d="M0.483725 23.5048L4.84424 14.5416C5.32259 13.5586 6.31708 12.9347 7.4067 12.9347H14.694L8.50577 25.6534L8.52129 25.6853L4.10006 34.819L3.31607 33.2793L0.520832 27.781C-0.160603 26.4416 -0.174097 24.8557 0.483725 23.5048Z" fill="#305AAD"/>
</g>
<defs>
<clipPath id="clip0_518_440">
<rect width="139" height="50" fill="white"/>
</clipPath>
</defs>
</svg>
